Playfair Display-Regular.ufo
<glyph name="numbersign" format="1">
  <advance width="637"/>
  <unicode hex="0023"/>
  <outline>
    <contour>
      <point x="451" y="602" type="line"/>
      <point x="354" y="101" type="line"/>
      <point x="374" y="101" type="line"/>
      <point x="471" y="602" type="line"/>
    </contour>
    <contour>
      <point x="52" y="267" type="line"/>
      <point x="48" y="247" type="line"/>
      <point x="549" y="247" type="line"/>
      <point x="553" y="267" type="line"/>
    </contour>
    <contour>
      <point x="264" y="602" type="line"/>
      <point x="167" y="101" type="line"/>
      <point x="187" y="101" type="line"/>
      <point x="284" y="602" type="line"/>
    </contour>
    <contour>
      <point x="88" y="454" type="line"/>
      <point x="85" y="434" type="line"/>
      <point x="586" y="434" type="line"/>
      <point x="589" y="454" type="line"/>
    </contour>
  </outline>
</glyph>
<glyph name="ampersand" format="1">
  <advance width="837"/>
  <unicode hex="0026"/>
  <outline>
    <contour>
      <point x="196" y="702"/>
      <point x="138" y="642"/>
      <point x="138" y="577" type="curve" smooth="yes"/>
      <point x="138" y="528"/>
      <point x="172" y="477"/>
      <point x="239" y="448" type="curve"/>
      <point x="188" y="435"/>
      <point x="54" y="380"/>
      <point x="54" y="235" type="curve" smooth="yes"/>
      <point x="54" y="81"/>
      <point x="205" y="-14"/>
      <point x="378" y="-14" type="curve" smooth="yes"/>
      <point x="571" y="-14"/>
      <point x="683" y="104"/>
      <point x="683" y="225" type="curve" smooth="yes"/>
      <point x="683" y="305"/>
      <point x="645" y="375"/>
      <point x="548" y="404" type="curve"/>
      <point x="536" y="394" type="line"/>
      <point x="640" y="362"/>
      <point x="654" y="281"/>
      <point x="654" y="243" type="curve" smooth="yes"/>
      <point x="654" y="129"/>
      <point x="532" y="60"/>
      <point x="391" y="60" type="curve" smooth="yes"/>
      <point x="241" y="60"/>
      <point x="123" y="138"/>
      <point x="123" y="276" type="curve" smooth="yes"/>
      <point x="123" y="369"/>
      <point x="176" y="417"/>
      <point x="253" y="440" type="curve"/>
      <point x="269" y="433"/>
      <point x="301" y="418"/>
      <point x="326" y="418" type="curve" smooth="yes"/>
      <point x="343" y="418"/>
      <point x="354" y="425"/>
      <point x="354" y="437" type="curve" smooth="yes"/>
      <point x="354" y="452"/>
      <point x="338" y="460"/>
      <point x="314" y="460" type="curve" smooth="yes"/>
      <point x="302" y="460"/>
      <point x="275" y="458"/>
      <point x="252" y="454" type="curve"/>
      <point x="212" y="491"/>
      <point x="201" y="531"/>
      <point x="201" y="568" type="curve" smooth="yes"/>
      <point x="201" y="645"/>
      <point x="249" y="687"/>
      <point x="317" y="687" type="curve" smooth="yes"/>
      <point x="358" y="687"/>
      <point x="387" y="672"/>
      <point x="393" y="655" type="curve"/>
      <point x="362" y="652"/>
      <point x="340" y="629"/>
      <point x="340" y="600" type="curve" smooth="yes"/>
      <point x="340" y="568"/>
      <point x="365" y="550"/>
      <point x="392" y="550" type="curve" smooth="yes"/>
      <point x="420" y="550"/>
      <point x="448" y="570"/>
      <point x="448" y="603" type="curve" smooth="yes"/>
      <point x="448" y="624"/>
      <point x="437" y="651"/>
      <point x="411" y="672" type="curve" smooth="yes"/>
      <point x="390" y="689"/>
      <point x="358" y="702"/>
      <point x="307" y="702" type="curve" smooth="yes"/>
    </contour>
    <contour>
      <point x="623" y="722"/>
      <point x="561" y="705"/>
      <point x="561" y="653" type="curve" smooth="yes"/>
      <point x="561" y="619"/>
      <point x="588" y="603"/>
      <point x="614" y="603" type="curve" smooth="yes"/>
      <point x="644" y="603"/>
      <point x="670" y="624"/>
      <point x="670" y="652" type="curve" smooth="yes"/>
      <point x="670" y="669"/>
      <point x="660" y="689"/>
      <point x="642" y="698" type="curve"/>
      <point x="645" y="704"/>
      <point x="656" y="707"/>
      <point x="672" y="707" type="curve" smooth="yes"/>
      <point x="734" y="707"/>
      <point x="788" y="663"/>
      <point x="788" y="606" type="curve" smooth="yes"/>
      <point x="788" y="572"/>
      <point x="769" y="541"/>
      <point x="702" y="510" type="curve" smooth="yes"/>
      <point x="628" y="476"/>
      <point x="518" y="451"/>
      <point x="458" y="431" type="curve" smooth="yes"/>
      <point x="367" y="400"/>
      <point x="320" y="354"/>
      <point x="320" y="285" type="curve" smooth="yes"/>
      <point x="320" y="202"/>
      <point x="387" y="168"/>
      <point x="444" y="168" type="curve" smooth="yes"/>
      <point x="497" y="168"/>
      <point x="563" y="197"/>
      <point x="563" y="254" type="curve" smooth="yes"/>
      <point x="563" y="286"/>
      <point x="542" y="308"/>
      <point x="510" y="308" type="curve" smooth="yes"/>
      <point x="479" y="308"/>
      <point x="455" y="288"/>
      <point x="455" y="256" type="curve" smooth="yes"/>
      <point x="455" y="222"/>
      <point x="481" y="209"/>
      <point x="502" y="205" type="curve"/>
      <point x="498" y="190"/>
      <point x="460" y="183"/>
      <point x="442" y="183" type="curve" smooth="yes"/>
      <point x="404" y="183"/>
      <point x="350" y="211"/>
      <point x="350" y="263" type="curve" smooth="yes"/>
      <point x="350" y="306"/>
      <point x="388" y="331"/>
      <point x="438" y="350" type="curve" smooth="yes"/>
      <point x="503" y="375"/>
      <point x="661" y="418"/>
      <point x="722" y="447" type="curve" smooth="yes"/>
      <point x="775" y="473"/>
      <point x="817" y="519"/>
      <point x="817" y="587" type="curve" smooth="yes"/>
      <point x="817" y="672"/>
      <point x="753" y="722"/>
      <point x="671" y="722" type="curve" smooth="yes"/>
    </contour>
  </outline>
</glyph>
<glyph name="parenright" format="1">
  <advance width="294"/>
  <unicode hex="0029"/>
  <outline>
    <contour>
      <point x="16" y="793" type="line"/>
      <point x="128" y="662"/>
      <point x="166" y="512"/>
      <point x="166" y="312" type="curve" smooth="yes"/>
      <point x="166" y="112"/>
      <point x="128" y="-38"/>
      <point x="16" y="-169" type="curve"/>
      <point x="30" y="-182" type="line"/>
      <point x="165" y="-59"/>
      <point x="250" y="105"/>
      <point x="250" y="312" type="curve" smooth="yes"/>
      <point x="250" y="519"/>
      <point x="165" y="683"/>
      <point x="30" y="806" type="curve"/>
    </contour>
  </outline>
</glyph>
<glyph name="asterisk" format="1">
  <advance width="492"/>
  <unicode hex="002A"/>
  <outline>
    <contour>
      <point x="331" y="610"/>
      <point x="298" y="570"/>
      <point x="245" y="520" type="curve"/>
      <point x="246" y="517" type="line"/>
      <point x="320" y="539"/>
      <point x="367" y="546"/>
      <point x="400" y="565" type="curve" smooth="yes"/>
      <point x="435" y="585"/>
      <point x="438" y="608"/>
      <point x="429" y="623" type="curve" smooth="yes"/>
      <point x="420" y="639"/>
      <point x="398" y="649"/>
      <point x="363" y="629" type="curve" smooth="yes"/>
    </contour>
    <contour>
      <point x="245" y="517" type="line"/>
      <point x="301" y="464"/>
      <point x="331" y="427"/>
      <point x="364" y="408" type="curve" smooth="yes"/>
      <point x="399" y="388"/>
      <point x="420" y="397"/>
      <point x="428" y="412" type="curve" smooth="yes"/>
      <point x="438" y="428"/>
      <point x="435" y="452"/>
      <point x="401" y="472" type="curve" smooth="yes"/>
      <point x="368" y="490"/>
      <point x="317" y="499"/>
      <point x="247" y="520" type="curve"/>
    </contour>
    <contour>
      <point x="245" y="518" type="line"/>
      <point x="227" y="443"/>
      <point x="210" y="399"/>
      <point x="210" y="361" type="curve" smooth="yes"/>
      <point x="210" y="320"/>
      <point x="228" y="307"/>
      <point x="245" y="307" type="curve" smooth="yes"/>
      <point x="264" y="307"/>
      <point x="283" y="321"/>
      <point x="284" y="361" type="curve" smooth="yes"/>
      <point x="283" y="398"/>
      <point x="265" y="447"/>
      <point x="248" y="518" type="curve"/>
    </contour>
    <contour>
      <point x="172" y="497"/>
      <point x="125" y="490"/>
      <point x="92" y="471" type="curve" smooth="yes"/>
      <point x="57" y="450"/>
      <point x="54" y="428"/>
      <point x="63" y="413" type="curve" smooth="yes"/>
      <point x="72" y="397"/>
      <point x="94" y="387"/>
      <point x="129" y="407" type="curve"/>
      <point x="161" y="426"/>
      <point x="194" y="466"/>
      <point x="247" y="516" type="curve"/>
      <point x="245" y="519" type="line"/>
    </contour>
    <contour>
      <point x="93" y="648"/>
      <point x="72" y="639"/>
      <point x="64" y="624" type="curve" smooth="yes"/>
      <point x="54" y="608"/>
      <point x="57" y="584"/>
      <point x="91" y="564" type="curve" smooth="yes"/>
      <point x="124" y="546"/>
      <point x="175" y="537"/>
      <point x="245" y="516" type="curve"/>
      <point x="246" y="519" type="line"/>
      <point x="191" y="572"/>
      <point x="161" y="609"/>
      <point x="128" y="628" type="curve" smooth="yes"/>
    </contour>
    <contour>
      <point x="228" y="729"/>
      <point x="209" y="715"/>
      <point x="209" y="675" type="curve" smooth="yes"/>
      <point x="209" y="637"/>
      <point x="227" y="589"/>
      <point x="244" y="518" type="curve"/>
      <point x="247" y="518" type="line"/>
      <point x="265" y="593"/>
      <point x="282" y="637"/>
      <point x="282" y="675" type="curve" smooth="yes"/>
      <point x="282" y="715"/>
      <point x="264" y="729"/>
      <point x="246" y="729" type="curve" smooth="yes"/>
    </contour>
  </outline>
</glyph>
<glyph name="period" format="1">
  <advance width="252"/>
  <unicode hex="002E"/>
  <outline>
    <contour>
      <point x="91" y="114"/>
      <point x="62" y="85"/>
      <point x="62" y="50" type="curve" smooth="yes"/>
      <point x="62" y="15"/>
      <point x="91" y="-14"/>
      <point x="126" y="-14" type="curve" smooth="yes"/>
      <point x="161" y="-14"/>
      <point x="190" y="15"/>
      <point x="190" y="50" type="curve" smooth="yes"/>
      <point x="190" y="85"/>
      <point x="161" y="114"/>
      <point x="126" y="114" type="curve" smooth="yes"/>
    </contour>
  </outline>
</glyph>
<glyph name="three" format="1">
  <advance width="451"/>
  <unicode hex="0033"/>
  <outline>
    <contour>
      <point x="128" y="529"/>
      <point x="74" y="469"/>
      <point x="44" y="404" type="curve"/>
      <point x="61" y="396" type="line"/>
      <point x="92" y="456"/>
      <point x="139" y="485"/>
      <point x="194" y="485" type="curve" smooth="yes"/>
      <point x="247" y="485"/>
      <point x="281" y="458"/>
      <point x="281" y="395" type="curve" smooth="yes"/>
      <point x="281" y="344"/>
      <point x="258" y="292"/>
      <point x="204" y="251" type="curve"/>
      <point x="191" y="252"/>
      <point x="180" y="255"/>
      <point x="169" y="255" type="curve" smooth="yes"/>
      <point x="155" y="255"/>
      <point x="143" y="248"/>
      <point x="143" y="236" type="curve" smooth="yes"/>
      <point x="143" y="228"/>
      <point x="148" y="223"/>
      <point x="159" y="223" type="curve" smooth="yes"/>
      <point x="171" y="223"/>
      <point x="186" y="230"/>
      <point x="206" y="238" type="curve" smooth="yes"/>
      <point x="271" y="233"/>
      <point x="312" y="176"/>
      <point x="312" y="98" type="curve" smooth="yes"/>
      <point x="312" y="-50"/>
      <point x="174" y="-130"/>
      <point x="37" y="-133" type="curve"/>
      <point x="37" y="-151" type="line"/>
      <point x="208" y="-151"/>
      <point x="407" y="-54"/>
      <point x="407" y="98" type="curve" smooth="yes"/>
      <point x="407" y="201"/>
      <point x="315" y="248"/>
      <point x="222" y="250" type="curve"/>
      <point x="298" y="277"/>
      <point x="371" y="337"/>
      <point x="371" y="415" type="curve" smooth="yes"/>
      <point x="371" y="486"/>
      <point x="310" y="529"/>
      <point x="227" y="529" type="curve" smooth="yes"/>
    </contour>
  </outline>
</glyph>
<glyph name="equal" format="1">
  <advance width="647"/>
  <unicode hex="003D"/>
  <outline>
    <contour>
      <point x="73" y="440" type="line"/>
      <point x="73" y="410" type="line"/>
      <point x="574" y="410" type="line"/>
      <point x="574" y="440" type="line"/>
    </contour>
    <contour>
      <point x="73" y="300" type="line"/>
      <point x="73" y="270" type="line"/>
      <point x="574" y="270" type="line"/>
      <point x="574" y="300" type="line"/>
    </contour>
  </outline>
</glyph>
<glyph name="at" format="1">
  <advance width="878"/>
  <unicode hex="0040"/>
  <outline>
    <contour>
      <point x="263" y="668"/>
      <point x="49" y="412"/>
      <point x="49" y="143" type="curve" smooth="yes"/>
      <point x="49" y="-69"/>
      <point x="182" y="-161"/>
      <point x="368" y="-161" type="curve" smooth="yes"/>
      <point x="457" y="-161"/>
      <point x="532" y="-137"/>
      <point x="582" y="-102" type="curve"/>
      <point x="575" y="-89" type="line"/>
      <point x="510" y="-128"/>
      <point x="441" y="-143"/>
      <point x="369" y="-143" type="curve" smooth="yes"/>
      <point x="197" y="-143"/>
      <point x="69" y="-61"/>
      <point x="69" y="145" type="curve" smooth="yes"/>
      <point x="69" y="416"/>
      <point x="288" y="650"/>
      <point x="533" y="650" type="curve" smooth="yes"/>
      <point x="690" y="650"/>
      <point x="824" y="579"/>
      <point x="824" y="394" type="curve" smooth="yes"/>
      <point x="824" y="173"/>
      <point x="664" y="51"/>
      <point x="587" y="51" type="curve" smooth="yes"/>
      <point x="558" y="51"/>
      <point x="551" y="66"/>
      <point x="564" y="111" type="curve" smooth="yes"/>
      <point x="648" y="478" type="line"/>
      <point x="622" y="467"/>
      <point x="589" y="464"/>
      <point x="558" y="464" type="curve"/>
      <point x="497" y="166" type="line" smooth="yes"/>
      <point x="489" y="136"/>
      <point x="446" y="26"/>
      <point x="554" y="26" type="curve" smooth="yes"/>
      <point x="681" y="26"/>
      <point x="844" y="168"/>
      <point x="844" y="393" type="curve" smooth="yes"/>
      <point x="844" y="588"/>
      <point x="706" y="668"/>
      <point x="532" y="668" type="curve" smooth="yes"/>
    </contour>
    <contour>
      <point x="364" y="478"/>
      <point x="240" y="299"/>
      <point x="240" y="147" type="curve" smooth="yes"/>
      <point x="240" y="79"/>
      <point x="267" y="26"/>
      <point x="343" y="26" type="curve" smooth="yes"/>
      <point x="434" y="26"/>
      <point x="486" y="103"/>
      <point x="530" y="269" type="curve"/>
      <point x="522" y="285" type="line"/>
      <point x="489" y="142"/>
      <point x="429" y="56"/>
      <point x="377" y="56" type="curve" smooth="yes"/>
      <point x="343" y="56"/>
      <point x="325" y="87"/>
      <point x="325" y="153" type="curve" smooth="yes"/>
      <point x="325" y="293"/>
      <point x="395" y="455"/>
      <point x="482" y="455" type="curve" smooth="yes"/>
      <point x="522" y="455"/>
      <point x="544" y="435"/>
      <point x="544" y="383" type="curve"/>
      <point x="552" y="387" type="line"/>
      <point x="557" y="454"/>
      <point x="524" y="478"/>
      <point x="478" y="478" type="curve" smooth="yes"/>
    </contour>
  </outline>
</glyph>
<glyph name="N" format="1">
  <advance width="706"/>
  <unicode hex="004E"/>
  <outline>
    <contour>
      <point x="648" y="706"/>
      <point x="611" y="705"/>
      <point x="577" y="705" type="curve" smooth="yes"/>
      <point x="543" y="705"/>
      <point x="499" y="706"/>
      <point x="475" y="708" type="curve"/>
      <point x="475" y="688" type="line"/>
      <point x="553" y="685"/>
      <point x="566" y="665"/>
      <point x="566" y="592" type="curve" smooth="yes"/>
      <point x="566" y="164" type="line"/>
      <point x="213" y="708" type="line"/>
      <point x="191" y="706"/>
      <point x="164" y="705"/>
      <point x="135" y="705" type="curve" smooth="yes"/>
      <point x="101" y="705"/>
      <point x="64" y="706"/>
      <point x="42" y="708" type="curve"/>
      <point x="42" y="688" type="line"/>
      <point x="110" y="685"/>
      <point x="123" y="675"/>
      <point x="123" y="602" type="curve" smooth="yes"/>
      <point x="123" y="116" type="line" smooth="yes"/>
      <point x="123" y="43"/>
      <point x="110" y="23"/>
      <point x="42" y="20" type="curve"/>
      <point x="42" y="0" type="line"/>
      <point x="64" y="2"/>
      <point x="101" y="3"/>
      <point x="135" y="3" type="curve" smooth="yes"/>
      <point x="169" y="3"/>
      <point x="213" y="2"/>
      <point x="237" y="0" type="curve"/>
      <point x="237" y="20" type="line"/>
      <point x="159" y="23"/>
      <point x="146" y="43"/>
      <point x="146" y="116" type="curve" smooth="yes"/>
      <point x="146" y="644" type="line"/>
      <point x="566" y="-5" type="line"/>
      <point x="574" y="-5"/>
      <point x="581" y="-5"/>
      <point x="589" y="-5" type="curve"/>
      <point x="589" y="592" type="line" smooth="yes"/>
      <point x="589" y="665"/>
      <point x="602" y="685"/>
      <point x="670" y="688" type="curve"/>
      <point x="670" y="708" type="line"/>
    </contour>
    <contour>
      <point x="374" y="708" type="move" name="top"/>
    </contour>
    <contour>
      <point x="367" y="0" type="move" name="bottom"/>
    </contour>
  </outline>
</glyph>
<glyph name="O" format="1">
  <advance width="741"/>
  <unicode hex="004F"/>
  <outline>
    <contour>
      <point x="185" y="722"/>
      <point x="53" y="572"/>
      <point x="53" y="348" type="curve" smooth="yes"/>
      <point x="53" y="119"/>
      <point x="180" y="-14"/>
      <point x="370" y="-14" type="curve" smooth="yes"/>
      <point x="556" y="-14"/>
      <point x="688" y="136"/>
      <point x="688" y="360" type="curve" smooth="yes"/>
      <point x="688" y="589"/>
      <point x="561" y="722"/>
      <point x="371" y="722" type="curve" smooth="yes"/>
    </contour>
    <contour>
      <point x="490" y="704"/>
      <point x="588" y="569"/>
      <point x="588" y="356" type="curve" smooth="yes"/>
      <point x="588" y="149"/>
      <point x="504" y="4"/>
      <point x="374" y="4" type="curve" smooth="yes"/>
      <point x="251" y="4"/>
      <point x="153" y="139"/>
      <point x="153" y="352" type="curve" smooth="yes"/>
      <point x="153" y="559"/>
      <point x="237" y="704"/>
      <point x="367" y="704" type="curve" smooth="yes"/>
    </contour>
    <contour>
      <point x="369" y="708" type="move" name="top"/>
    </contour>
    <contour>
      <point x="372" y="0" type="move" name="bottom"/>
    </contour>
  </outline>
</glyph>
<glyph name="S" format="1">
  <advance width="540"/>
  <unicode hex="0053"/>
  <outline>
    <contour>
      <point x="157" y="719"/>
      <point x="68" y="664"/>
      <point x="68" y="546" type="curve" smooth="yes"/>
      <point x="68" y="433"/>
      <point x="151" y="379"/>
      <point x="246" y="322" type="curve" smooth="yes"/>
      <point x="339" y="266"/>
      <point x="402" y="220"/>
      <point x="402" y="139" type="curve" smooth="yes"/>
      <point x="402" y="45"/>
      <point x="337" y="6"/>
      <point x="272" y="6" type="curve" smooth="yes"/>
      <point x="144" y="6"/>
      <point x="98" y="112"/>
      <point x="90" y="233" type="curve"/>
      <point x="67" y="233" type="line"/>
      <point x="67" y="92"/>
      <point x="66" y="34"/>
      <point x="63" y="-7" type="curve"/>
      <point x="86" y="-7" type="line"/>
      <point x="90" y="22"/>
      <point x="95" y="37"/>
      <point x="108" y="37" type="curve" smooth="yes"/>
      <point x="116" y="37"/>
      <point x="126" y="33"/>
      <point x="142" y="23" type="curve" smooth="yes"/>
      <point x="171" y="5"/>
      <point x="208" y="-14"/>
      <point x="279" y="-14" type="curve" smooth="yes"/>
      <point x="395" y="-14"/>
      <point x="491" y="49"/>
      <point x="491" y="176" type="curve" smooth="yes"/>
      <point x="491" y="283"/>
      <point x="415" y="336"/>
      <point x="311" y="401" type="curve" smooth="yes"/>
      <point x="221" y="457"/>
      <point x="143" y="493"/>
      <point x="143" y="584" type="curve" smooth="yes"/>
      <point x="143" y="653"/>
      <point x="194" y="700"/>
      <point x="265" y="700" type="curve" smooth="yes"/>
      <point x="376" y="700"/>
      <point x="422" y="603"/>
      <point x="429" y="508" type="curve"/>
      <point x="452" y="508" type="line"/>
      <point x="452" y="634"/>
      <point x="454" y="677"/>
      <point x="457" y="712" type="curve"/>
      <point x="434" y="712" type="line"/>
      <point x="430" y="683"/>
      <point x="425" y="668"/>
      <point x="412" y="668" type="curve" smooth="yes"/>
      <point x="403" y="668"/>
      <point x="394" y="672"/>
      <point x="378" y="682" type="curve" smooth="yes"/>
      <point x="351" y="700"/>
      <point x="322" y="719"/>
      <point x="256" y="719" type="curve" smooth="yes"/>
    </contour>
    <contour>
      <point x="275" y="708" type="move" name="top"/>
    </contour>
    <contour>
      <point x="286" y="0" type="move" name="bottom"/>
    </contour>
  </outline>
</glyph>
<glyph name="U" format="1">
  <advance width="682"/>
  <unicode hex="0055"/>
  <outline>
    <contour>
      <point x="633" y="706"/>
      <point x="596" y="705"/>
      <point x="562" y="705" type="curve" smooth="yes"/>
      <point x="528" y="705"/>
      <point x="484" y="706"/>
      <point x="460" y="708" type="curve"/>
      <point x="460" y="688" type="line"/>
      <point x="528" y="685"/>
      <point x="551" y="665"/>
      <point x="551" y="592" type="curve" smooth="yes"/>
      <point x="551" y="280" type="line" smooth="yes"/>
      <point x="551" y="131"/>
      <point x="510" y="21"/>
      <point x="359" y="21" type="curve" smooth="yes"/>
      <point x="217" y="21"/>
      <point x="201" y="134"/>
      <point x="201" y="271" type="curve" smooth="yes"/>
      <point x="201" y="602" type="line" smooth="yes"/>
      <point x="201" y="675"/>
      <point x="214" y="685"/>
      <point x="282" y="688" type="curve"/>
      <point x="282" y="708" type="line"/>
      <point x="251" y="706"/>
      <point x="201" y="705"/>
      <point x="155" y="705" type="curve" smooth="yes"/>
      <point x="103" y="705"/>
      <point x="55" y="706"/>
      <point x="27" y="708" type="curve"/>
      <point x="27" y="688" type="line"/>
      <point x="95" y="685"/>
      <point x="108" y="675"/>
      <point x="108" y="602" type="curve" smooth="yes"/>
      <point x="108" y="288" type="line" smooth="yes"/>
      <point x="108" y="152"/>
      <point x="123" y="95"/>
      <point x="182" y="40" type="curve" smooth="yes"/>
      <point x="226" y="-1"/>
      <point x="286" y="-14"/>
      <point x="350" y="-14" type="curve" smooth="yes"/>
      <point x="432" y="-14"/>
      <point x="500" y="23"/>
      <point x="533" y="79" type="curve" smooth="yes"/>
      <point x="563" y="130"/>
      <point x="574" y="198"/>
      <point x="574" y="291" type="curve" smooth="yes"/>
      <point x="574" y="592" type="line" smooth="yes"/>
      <point x="574" y="665"/>
      <point x="587" y="685"/>
      <point x="655" y="688" type="curve"/>
      <point x="655" y="708" type="line"/>
    </contour>
    <contour>
      <point x="440" y="0" type="move" name="ogonek"/>
    </contour>
    <contour>
      <point x="360" y="0" type="move" name="bottom"/>
    </contour>
    <contour>
      <point x="352" y="708" type="move" name="top"/>
    </contour>
  </outline>
</glyph>
<glyph name="asciicircum" format="1">
  <advance width="536"/>
  <unicode hex="005E"/>
  <outline>
    <contour>
      <point x="259" y="528" type="line"/>
      <point x="228" y="453"/>
      <point x="159" y="378"/>
      <point x="72" y="336" type="curve"/>
      <point x="80" y="322" type="line"/>
      <point x="144" y="351"/>
      <point x="210" y="398"/>
      <point x="248" y="442" type="curve"/>
      <point x="294" y="398"/>
      <point x="376" y="351"/>
      <point x="456" y="322" type="curve"/>
      <point x="464" y="336" type="line"/>
      <point x="377" y="378"/>
      <point x="308" y="453"/>
      <point x="277" y="528" type="curve"/>
    </contour>
  </outline>
</glyph>
<glyph name="braceleft" format="1">
  <advance width="304"/>
  <unicode hex="007B"/>
  <outline>
    <contour>
      <point x="151" y="782"/>
      <point x="108" y="727"/>
      <point x="108" y="551" type="curve" smooth="yes"/>
      <point x="108" y="363"/>
      <point x="93" y="312"/>
      <point x="32" y="308" type="curve" smooth="yes"/>
      <point x="27" y="308" type="line"/>
      <point x="27" y="290" type="line"/>
      <point x="32" y="290" type="line" smooth="yes"/>
      <point x="93" y="285"/>
      <point x="108" y="234"/>
      <point x="108" y="47" type="curve" smooth="yes"/>
      <point x="108" y="-137"/>
      <point x="151" y="-188"/>
      <point x="278" y="-188" type="curve"/>
      <point x="278" y="-169" type="line"/>
      <point x="213" y="-168"/>
      <point x="198" y="-150"/>
      <point x="198" y="47" type="curve" smooth="yes"/>
      <point x="198" y="226"/>
      <point x="130" y="277"/>
      <point x="55" y="299" type="curve"/>
      <point x="130" y="321"/>
      <point x="198" y="371"/>
      <point x="198" y="551" type="curve" smooth="yes"/>
      <point x="198" y="740"/>
      <point x="213" y="761"/>
      <point x="278" y="763" type="curve"/>
      <point x="278" y="782" type="line"/>
    </contour>
  </outline>
</glyph>
<glyph name="bar" format="1">
  <advance width="222"/>
  <unicode hex="007C"/>
  <outline>
    <contour>
      <point x="91" y="858" type="line"/>
      <point x="91" y="-195" type="line"/>
      <point x="131" y="-195" type="line"/>
      <point x="131" y="858" type="line"/>
    </contour>
  </outline>
</glyph>
<glyph name="currency" format="1">
  <advance width="535"/>
  <unicode hex="00A4"/>
  <outline>
    <contour>
      <point x="387" y="447" type="line"/>
      <point x="354" y="474"/>
      <point x="313" y="490"/>
      <point x="268" y="490" type="curve" smooth="yes"/>
      <point x="223" y="490"/>
      <point x="181" y="474"/>
      <point x="149" y="448" type="curve"/>
      <point x="105" y="492" type="line"/>
      <point x="77" y="464" type="line"/>
      <point x="121" y="420" type="line"/>
      <point x="94" y="387"/>
      <point x="78" y="345"/>
      <point x="78" y="300" type="curve" smooth="yes"/>
      <point x="78" y="254"/>
      <point x="94" y="213"/>
      <point x="120" y="181" type="curve"/>
      <point x="77" y="138" type="line"/>
      <point x="106" y="109" type="line"/>
      <point x="149" y="152" type="line"/>
      <point x="181" y="126"/>
      <point x="223" y="111"/>
      <point x="268" y="111" type="curve" smooth="yes"/>
      <point x="313" y="111"/>
      <point x="354" y="127"/>
      <point x="387" y="153" type="curve"/>
      <point x="431" y="109" type="line"/>
      <point x="459" y="138" type="line"/>
      <point x="415" y="181" type="line"/>
      <point x="441" y="213"/>
      <point x="457" y="254"/>
      <point x="457" y="300" type="curve" smooth="yes"/>
      <point x="457" y="345"/>
      <point x="441" y="386"/>
      <point x="415" y="419" type="curve"/>
      <point x="460" y="464" type="line"/>
      <point x="432" y="492" type="line"/>
    </contour>
    <contour>
      <point x="349" y="453"/>
      <point x="416" y="382"/>
      <point x="416" y="300" type="curve" smooth="yes"/>
      <point x="416" y="217"/>
      <point x="349" y="148"/>
      <point x="268" y="148" type="curve" smooth="yes"/>
      <point x="187" y="148"/>
      <point x="119" y="217"/>
      <point x="119" y="300" type="curve" smooth="yes"/>
      <point x="119" y="383"/>
      <point x="186" y="453"/>
      <point x="268" y="453" type="curve" smooth="yes"/>
    </contour>
  </outline>
</glyph>
<glyph name="brokenbar" format="1">
  <advance width="224"/>
  <unicode hex="00A6"/>
  <outline>
    <contour>
      <point x="92" y="326" type="line"/>
      <point x="92" y="-195" type="line"/>
      <point x="132" y="-195" type="line"/>
      <point x="132" y="326" type="line"/>
    </contour>
    <contour>
      <point x="92" y="858" type="line"/>
      <point x="92" y="384" type="line"/>
      <point x="132" y="384" type="line"/>
      <point x="132" y="858" type="line"/>
    </contour>
  </outline>
</glyph>
<glyph name="ordfeminine" format="1">
  <advance width="463"/>
  <unicode hex="00AA"/>
  <outline>
    <contour>
      <point x="178" y="722"/>
      <point x="146" y="714"/>
      <point x="115" y="699" type="curve" smooth="yes"/>
      <point x="88" y="686"/>
      <point x="67" y="665"/>
      <point x="67" y="636" type="curve" smooth="yes"/>
      <point x="67" y="609"/>
      <point x="86" y="591"/>
      <point x="115" y="591" type="curve" smooth="yes"/>
      <point x="138" y="591"/>
      <point x="159" y="609"/>
      <point x="159" y="635" type="curve" smooth="yes"/>
      <point x="159" y="660"/>
      <point x="143" y="677"/>
      <point x="125" y="682" type="curve"/>
      <point x="148" y="697"/>
      <point x="177" y="703"/>
      <point x="199" y="703" type="curve" smooth="yes"/>
      <point x="242" y="703"/>
      <point x="267" y="681"/>
      <point x="267" y="621" type="curve" smooth="yes"/>
      <point x="267" y="603" type="line" smooth="yes"/>
      <point x="267" y="577"/>
      <point x="224" y="561"/>
      <point x="187" y="547" type="curve" smooth="yes"/>
      <point x="112" y="519"/>
      <point x="57" y="495"/>
      <point x="57" y="438" type="curve" smooth="yes"/>
      <point x="57" y="384"/>
      <point x="105" y="360"/>
      <point x="150" y="360" type="curve" smooth="yes"/>
      <point x="193" y="360"/>
      <point x="233" y="374"/>
      <point x="267" y="407" type="curve"/>
      <point x="269" y="378"/>
      <point x="284" y="360"/>
      <point x="334" y="360" type="curve" smooth="yes"/>
      <point x="374" y="360"/>
      <point x="402" y="376"/>
      <point x="424" y="397" type="curve"/>
      <point x="413" y="412" type="line"/>
      <point x="402" y="401"/>
      <point x="387" y="395"/>
      <point x="372" y="395" type="curve" smooth="yes"/>
      <point x="354" y="395"/>
      <point x="347" y="404"/>
      <point x="347" y="432" type="curve" smooth="yes"/>
      <point x="347" y="595" type="line" smooth="yes"/>
      <point x="347" y="684"/>
      <point x="311" y="722"/>
      <point x="225" y="722" type="curve" smooth="yes"/>
    </contour>
    <contour>
      <point x="267" y="427" type="line"/>
      <point x="245" y="407"/>
      <point x="219" y="395"/>
      <point x="194" y="395" type="curve" smooth="yes"/>
      <point x="161" y="395"/>
      <point x="139" y="420"/>
      <point x="139" y="456" type="curve" smooth="yes"/>
      <point x="139" y="491"/>
      <point x="162" y="513"/>
      <point x="211" y="535" type="curve" smooth="yes"/>
      <point x="251" y="553"/>
      <point x="262" y="561"/>
      <point x="267" y="572" type="curve"/>
    </contour>
  </outline>
</glyph>
<glyph name="registered" format="1">
  <advance width="678"/>
  <unicode hex="00AE"/>
  <outline>
    <contour>
      <point x="185" y="782"/>
      <point x="60" y="657"/>
      <point x="60" y="503" type="curve" smooth="yes"/>
      <point x="60" y="349"/>
      <point x="185" y="224"/>
      <point x="339" y="224" type="curve" smooth="yes"/>
      <point x="493" y="224"/>
      <point x="618" y="349"/>
      <point x="618" y="503" type="curve" smooth="yes"/>
      <point x="618" y="657"/>
      <point x="493" y="782"/>
      <point x="339" y="782" type="curve" smooth="yes"/>
    </contour>
    <contour>
      <point x="272" y="505" type="line"/>
      <point x="363" y="505"/>
      <point x="373" y="499"/>
      <point x="382" y="459" type="curve" smooth="yes"/>
      <point x="399" y="385" type="line" smooth="yes"/>
      <point x="406" y="357"/>
      <point x="419" y="344"/>
      <point x="454" y="344" type="curve" smooth="yes"/>
      <point x="476" y="344"/>
      <point x="490" y="349"/>
      <point x="498" y="365" type="curve"/>
      <point x="488" y="372" type="line"/>
      <point x="485" y="366"/>
      <point x="480" y="364"/>
      <point x="476" y="364" type="curve" smooth="yes"/>
      <point x="463" y="364"/>
      <point x="462" y="380"/>
      <point x="458" y="397" type="curve" smooth="yes"/>
      <point x="446" y="454" type="line" smooth="yes"/>
      <point x="439" y="489"/>
      <point x="421" y="508"/>
      <point x="359" y="513" type="curve"/>
      <point x="336" y="517"/>
      <point x="337" y="520"/>
      <point x="270" y="520" type="curve"/>
    </contour>
    <contour>
      <point x="471" y="750"/>
      <point x="576" y="638"/>
      <point x="576" y="503" type="curve" smooth="yes"/>
      <point x="576" y="368"/>
      <point x="471" y="256"/>
      <point x="339" y="256" type="curve" smooth="yes"/>
      <point x="207" y="256"/>
      <point x="102" y="368"/>
      <point x="102" y="503" type="curve" smooth="yes"/>
      <point x="102" y="638"/>
      <point x="207" y="750"/>
      <point x="339" y="750" type="curve" smooth="yes"/>
    </contour>
    <contour>
      <point x="334" y="676"/>
      <point x="299" y="675"/>
      <point x="262" y="675" type="curve" smooth="yes"/>
      <point x="245" y="675"/>
      <point x="226" y="675"/>
      <point x="214" y="676" type="curve"/>
      <point x="214" y="661" type="line"/>
      <point x="233" y="659"/>
      <point x="237" y="655"/>
      <point x="237" y="623" type="curve" smooth="yes"/>
      <point x="237" y="404" type="line" smooth="yes"/>
      <point x="237" y="373"/>
      <point x="233" y="369"/>
      <point x="214" y="367" type="curve"/>
      <point x="214" y="352" type="line"/>
      <point x="226" y="352"/>
      <point x="245" y="353"/>
      <point x="266" y="353" type="curve" smooth="yes"/>
      <point x="284" y="353"/>
      <point x="304" y="352"/>
      <point x="317" y="352" type="curve"/>
      <point x="317" y="367" type="line"/>
      <point x="298" y="369"/>
      <point x="294" y="373"/>
      <point x="294" y="404" type="curve" smooth="yes"/>
      <point x="294" y="628" type="line" smooth="yes"/>
      <point x="294" y="655"/>
      <point x="300" y="661"/>
      <point x="332" y="661" type="curve" smooth="yes"/>
      <point x="384" y="661"/>
      <point x="402" y="637"/>
      <point x="402" y="587" type="curve" smooth="yes"/>
      <point x="402" y="550"/>
      <point x="389" y="521"/>
      <point x="318" y="521" type="curve" smooth="yes"/>
      <point x="265" y="521" type="line"/>
      <point x="265" y="521"/>
      <point x="265" y="505"/>
      <point x="265" y="505" type="curve"/>
      <point x="325" y="508" type="line" smooth="yes"/>
      <point x="439" y="514"/>
      <point x="464" y="557"/>
      <point x="464" y="597" type="curve" smooth="yes"/>
      <point x="464" y="647"/>
      <point x="424" y="676"/>
      <point x="348" y="676" type="curve" smooth="yes"/>
    </contour>
  </outline>
</glyph>
<glyph name="degree" format="1">
  <advance width="333"/>
  <unicode hex="00B0"/>
  <outline>
    <contour>
      <point x="102" y="820"/>
      <point x="45" y="774"/>
      <point x="45" y="700" type="curve" smooth="yes"/>
      <point x="45" y="625"/>
      <point x="102" y="579"/>
      <point x="166" y="579" type="curve" smooth="yes"/>
      <point x="231" y="579"/>
      <point x="288" y="625"/>
      <point x="288" y="700" type="curve" smooth="yes"/>
      <point x="288" y="774"/>
      <point x="231" y="820"/>
      <point x="166" y="820" type="curve" smooth="yes"/>
    </contour>
    <contour>
      <point x="211" y="803"/>
      <point x="263" y="767"/>
      <point x="263" y="699" type="curve" smooth="yes"/>
      <point x="263" y="629"/>
      <point x="211" y="596"/>
      <point x="166" y="596" type="curve" smooth="yes"/>
      <point x="121" y="596"/>
      <point x="70" y="629"/>
      <point x="70" y="699" type="curve" smooth="yes"/>
      <point x="70" y="767"/>
      <point x="121" y="803"/>
      <point x="166" y="803" type="curve" smooth="yes"/>
    </contour>
  </outline>
</glyph>
<glyph name="ordmasculine" format="1">
  <advance width="454"/>
  <unicode hex="00BA"/>
  <outline>
    <contour>
      <point x="139" y="722"/>
      <point x="50" y="660"/>
      <point x="50" y="541" type="curve" smooth="yes"/>
      <point x="50" y="422"/>
      <point x="139" y="360"/>
      <point x="227" y="360" type="curve" smooth="yes"/>
      <point x="315" y="360"/>
      <point x="404" y="422"/>
      <point x="404" y="541" type="curve" smooth="yes"/>
      <point x="404" y="660"/>
      <point x="315" y="722"/>
      <point x="227" y="722" type="curve" smooth="yes"/>
    </contour>
    <contour>
      <point x="278" y="704"/>
      <point x="321" y="657"/>
      <point x="321" y="541" type="curve" smooth="yes"/>
      <point x="321" y="425"/>
      <point x="278" y="378"/>
      <point x="227" y="378" type="curve" smooth="yes"/>
      <point x="176" y="378"/>
      <point x="133" y="425"/>
      <point x="133" y="541" type="curve" smooth="yes"/>
      <point x="133" y="657"/>
      <point x="176" y="704"/>
      <point x="227" y="704" type="curve" smooth="yes"/>
    </contour>
  </outline>
</glyph>
<glyph name="Thorn" format="1">
  <advance width="580"/>
  <unicode hex="00DE"/>
  <outline>
    <contour>
      <point x="284" y="559"/>
      <point x="220" y="557"/>
      <point x="157" y="557" type="curve"/>
      <point x="159" y="538" type="line"/>
      <point x="181" y="538"/>
      <point x="241" y="540"/>
      <point x="283" y="540" type="curve" smooth="yes"/>
      <point x="404" y="540"/>
      <point x="449" y="477"/>
      <point x="449" y="358" type="curve" smooth="yes"/>
      <point x="449" y="251"/>
      <point x="418" y="158"/>
      <point x="276" y="158" type="curve" smooth="yes"/>
      <point x="190" y="158" type="line"/>
      <point x="190" y="158"/>
      <point x="190" y="138"/>
      <point x="190" y="138" type="curve"/>
      <point x="286" y="138" type="line" smooth="yes"/>
      <point x="493" y="138"/>
      <point x="549" y="263"/>
      <point x="549" y="364" type="curve" smooth="yes"/>
      <point x="549" y="474"/>
      <point x="469" y="559"/>
      <point x="308" y="559" type="curve" smooth="yes"/>
    </contour>
    <component base="I"/>
  </outline>
</glyph>
<glyph name="germandbls" format="1">
  <advance width="584"/>
  <unicode hex="00DF"/>
  <outline>
    <contour>
      <point x="178" y="782"/>
      <point x="97" y="717"/>
      <point x="97" y="538" type="curve" smooth="yes"/>
      <point x="97" y="109" type="line" smooth="yes"/>
      <point x="97" y="49"/>
      <point x="79" y="21"/>
      <point x="21" y="21" type="curve"/>
      <point x="21" y="0" type="line"/>
      <point x="42" y="2"/>
      <point x="63" y="3"/>
      <point x="83" y="3" type="curve" smooth="yes"/>
      <point x="122" y="3"/>
      <point x="158" y="-1"/>
      <point x="187" y="-11" type="curve"/>
      <point x="187" y="624" type="line" smooth="yes"/>
      <point x="187" y="748"/>
      <point x="246" y="767"/>
      <point x="283" y="767" type="curve" smooth="yes"/>
      <point x="347" y="767"/>
      <point x="381" y="719"/>
      <point x="381" y="635" type="curve" smooth="yes"/>
      <point x="381" y="549"/>
      <point x="356" y="489"/>
      <point x="289" y="437" type="curve"/>
      <point x="276" y="442"/>
      <point x="262" y="445"/>
      <point x="253" y="445" type="curve" smooth="yes"/>
      <point x="238" y="445"/>
      <point x="230" y="437"/>
      <point x="230" y="426" type="curve" smooth="yes"/>
      <point x="230" y="415"/>
      <point x="240" y="409"/>
      <point x="250" y="409" type="curve" smooth="yes"/>
      <point x="262" y="409"/>
      <point x="276" y="417"/>
      <point x="287" y="424" type="curve"/>
      <point x="402" y="388"/>
      <point x="453" y="268"/>
      <point x="453" y="156" type="curve" smooth="yes"/>
      <point x="453" y="39"/>
      <point x="399" y="1"/>
      <point x="353" y="1" type="curve" smooth="yes"/>
      <point x="327" y="1"/>
      <point x="305" y="13"/>
      <point x="301" y="25" type="curve"/>
      <point x="330" y="34"/>
      <point x="344" y="53"/>
      <point x="344" y="77" type="curve" smooth="yes"/>
      <point x="344" y="108"/>
      <point x="321" y="126"/>
      <point x="291" y="126" type="curve" smooth="yes"/>
      <point x="258" y="126"/>
      <point x="239" y="104"/>
      <point x="239" y="72" type="curve" smooth="yes"/>
      <point x="239" y="12"/>
      <point x="307" y="-14"/>
      <point x="361" y="-14" type="curve" smooth="yes"/>
      <point x="456" y="-14"/>
      <point x="542" y="57"/>
      <point x="542" y="175" type="curve" smooth="yes"/>
      <point x="542" y="307"/>
      <point x="428" y="404"/>
      <point x="301" y="433" type="curve"/>
      <point x="356" y="455"/>
      <point x="471" y="535"/>
      <point x="471" y="639" type="curve" smooth="yes"/>
      <point x="471" y="727"/>
      <point x="409" y="782"/>
      <point x="294" y="782" type="curve" smooth="yes"/>
    </contour>
  </outline>
</glyph>
<glyph name="gcircumflex" format="1">
  <advance width="505"/>
  <unicode hex="011D"/>
  <outline>
    <contour>
      <point x="399" y="-188"/>
      <point x="485" y="-72"/>
      <point x="485" y="17" type="curve" smooth="yes"/>
      <point x="485" y="87"/>
      <point x="431" y="110"/>
      <point x="368" y="110" type="curve" smooth="yes"/>
      <point x="133" y="110" type="line" smooth="yes"/>
      <point x="99" y="110"/>
      <point x="85" y="121"/>
      <point x="85" y="143" type="curve" smooth="yes"/>
      <point x="85" y="174"/>
      <point x="124" y="198"/>
      <point x="169" y="222" type="curve"/>
      <point x="157" y="231" type="line"/>
      <point x="57" y="187"/>
      <point x="26" y="146"/>
      <point x="26" y="102" type="curve" smooth="yes"/>
      <point x="26" y="35"/>
      <point x="91" y="26"/>
      <point x="126" y="26" type="curve" smooth="yes"/>
      <point x="340" y="26" type="line" smooth="yes"/>
      <point x="401" y="26"/>
      <point x="416" y="7"/>
      <point x="416" y="-30" type="curve" smooth="yes"/>
      <point x="416" y="-126"/>
      <point x="316" y="-171"/>
      <point x="232" y="-171" type="curve" smooth="yes"/>
      <point x="165" y="-171"/>
      <point x="86" y="-143"/>
      <point x="86" y="-75" type="curve" smooth="yes"/>
      <point x="86" y="-35"/>
      <point x="114" y="10"/>
      <point x="164" y="31" type="curve"/>
      <point x="154" y="36" type="line"/>
      <point x="83" y="9"/>
      <point x="4" y="-41"/>
      <point x="4" y="-96" type="curve" smooth="yes"/>
      <point x="4" y="-157"/>
      <point x="104" y="-188"/>
      <point x="205" y="-188" type="curve" smooth="yes"/>
    </contour>
    <contour>
      <point x="348" y="213"/>
      <point x="428" y="261"/>
      <point x="428" y="371" type="curve" smooth="yes"/>
      <point x="428" y="481"/>
      <point x="348" y="529"/>
      <point x="243" y="529" type="curve" smooth="yes"/>
      <point x="138" y="529"/>
      <point x="58" y="481"/>
      <point x="58" y="371" type="curve" smooth="yes"/>
      <point x="58" y="261"/>
      <point x="138" y="213"/>
      <point x="243" y="213" type="curve" smooth="yes"/>
    </contour>
    <contour>
      <point x="187" y="231"/>
      <point x="152" y="264"/>
      <point x="152" y="371" type="curve" smooth="yes"/>
      <point x="152" y="478"/>
      <point x="187" y="511"/>
      <point x="243" y="511" type="curve" smooth="yes"/>
      <point x="299" y="511"/>
      <point x="334" y="478"/>
      <point x="334" y="371" type="curve" smooth="yes"/>
      <point x="334" y="264"/>
      <point x="299" y="231"/>
      <point x="243" y="231" type="curve" smooth="yes"/>
    </contour>
    <contour>
      <point x="130" y="641"/>
      <point x="188" y="680"/>
      <point x="222" y="716" type="curve"/>
      <point x="250" y="691"/>
      <point x="296" y="663"/>
      <point x="340" y="646" type="curve"/>
      <point x="350" y="660" type="line"/>
      <point x="306" y="692"/>
      <point x="266" y="747"/>
      <point x="251" y="802" type="curve"/>
      <point x="233" y="802" type="line"/>
      <point x="206" y="735"/>
      <point x="143" y="668"/>
      <point x="66" y="630" type="curve"/>
      <point x="74" y="616" type="line"/>
    </contour>
    <contour>
      <point x="331" y="520"/>
      <point x="337" y="541"/>
      <point x="342" y="556" type="curve" smooth="yes"/>
      <point x="350" y="580"/>
      <point x="359" y="596"/>
      <point x="369" y="605" type="curve"/>
      <point x="375" y="566"/>
      <point x="386" y="542"/>
      <point x="422" y="542" type="curve" smooth="yes"/>
      <point x="450" y="542"/>
      <point x="470" y="563"/>
      <point x="470" y="590" type="curve" smooth="yes"/>
      <point x="470" y="619"/>
      <point x="452" y="642"/>
      <point x="417" y="642" type="curve" smooth="yes"/>
      <point x="388" y="642"/>
      <point x="365" y="629"/>
      <point x="349" y="609" type="curve" smooth="yes"/>
      <point x="332" y="587"/>
      <point x="318" y="552"/>
      <point x="312" y="510" type="curve"/>
      <point x="329" y="495" type="line"/>
    </contour>
  </outline>
</glyph>
<glyph name="tbar" format="1">
  <advance width="376"/>
  <unicode hex="0167"/>
  <outline>
    <contour>
      <point x="7" y="421" type="line"/>
      <point x="7" y="401" type="line"/>
      <point x="341" y="401" type="line"/>
      <point x="341" y="421" type="line"/>
    </contour>
    <component base="t" xOffset="3"/>
  </outline>
</glyph>
<glyph name="Omega" format="1">
  <advance width="714"/>
  <unicode hex="03A9"/>
  <outline>
    <contour>
      <point x="171" y="722"/>
      <point x="69" y="628"/>
      <point x="69" y="472" type="curve" smooth="yes"/>
      <point x="69" y="293"/>
      <point x="198" y="198"/>
      <point x="291" y="23" type="curve"/>
      <point x="243" y="23" type="line" smooth="yes"/>
      <point x="145" y="23"/>
      <point x="110" y="65"/>
      <point x="99" y="190" type="curve"/>
      <point x="76" y="190" type="line"/>
      <point x="78" y="172"/>
      <point x="79" y="146"/>
      <point x="79" y="118" type="curve" smooth="yes"/>
      <point x="79" y="95"/>
      <point x="77" y="47"/>
      <point x="72" y="0" type="curve"/>
      <point x="101" y="3"/>
      <point x="146" y="3"/>
      <point x="174" y="3" type="curve" smooth="yes"/>
      <point x="215" y="3"/>
      <point x="260" y="1"/>
      <point x="316" y="0" type="curve"/>
      <point x="316" y="16" type="line"/>
      <point x="267" y="89"/>
      <point x="169" y="257"/>
      <point x="169" y="452" type="curve" smooth="yes"/>
      <point x="169" y="610"/>
      <point x="219" y="704"/>
      <point x="357" y="704" type="curve" smooth="yes"/>
      <point x="495" y="704"/>
      <point x="545" y="610"/>
      <point x="545" y="452" type="curve" smooth="yes"/>
      <point x="545" y="257"/>
      <point x="447" y="89"/>
      <point x="398" y="16" type="curve"/>
      <point x="398" y="0" type="line"/>
      <point x="454" y="1"/>
      <point x="499" y="3"/>
      <point x="540" y="3" type="curve" smooth="yes"/>
      <point x="568" y="3"/>
      <point x="613" y="3"/>
      <point x="642" y="0" type="curve"/>
      <point x="637" y="47"/>
      <point x="635" y="95"/>
      <point x="635" y="118" type="curve" smooth="yes"/>
      <point x="635" y="146"/>
      <point x="636" y="172"/>
      <point x="638" y="190" type="curve"/>
      <point x="615" y="190" type="line"/>
      <point x="604" y="65"/>
      <point x="569" y="23"/>
      <point x="471" y="23" type="curve" smooth="yes"/>
      <point x="423" y="23" type="line"/>
      <point x="516" y="198"/>
      <point x="645" y="293"/>
      <point x="645" y="472" type="curve" smooth="yes"/>
      <point x="645" y="628"/>
      <point x="543" y="722"/>
      <point x="357" y="722" type="curve" smooth="yes"/>
    </contour>
    <contour>
      <point x="20" y="708" type="move" name="topleft"/>
    </contour>
  </outline>
</glyph>
<glyph name="mu" format="1">
  <advance width="664"/>
  <unicode hex="03BC"/>
  <outline>
    <contour>
      <point x="223" y="529"/>
      <point x="197" y="517"/>
      <point x="191" y="475" type="curve" smooth="yes"/>
      <point x="188" y="455"/>
      <point x="188" y="393"/>
      <point x="186" y="235" type="curve"/>
      <point x="204" y="235" type="line"/>
      <point x="230" y="401"/>
      <point x="284" y="434"/>
      <point x="284" y="487" type="curve" smooth="yes"/>
      <point x="284" y="517"/>
      <point x="269" y="529"/>
      <point x="246" y="529" type="curve" smooth="yes"/>
    </contour>
    <contour>
      <point x="25" y="-172"/>
      <point x="39" y="-188"/>
      <point x="66" y="-188" type="curve" smooth="yes"/>
      <point x="95" y="-188"/>
      <point x="115" y="-171"/>
      <point x="124" y="-149" type="curve" smooth="yes"/>
      <point x="144" y="-101"/>
      <point x="176" y="-3"/>
      <point x="201" y="215" type="curve" smooth="yes"/>
      <point x="202" y="231"/>
      <point x="204" y="248"/>
      <point x="206" y="266" type="curve"/>
      <point x="188" y="266" type="line"/>
      <point x="177" y="94"/>
      <point x="128" y="6"/>
      <point x="86" y="-50" type="curve" smooth="yes"/>
      <point x="53" y="-94"/>
      <point x="25" y="-119"/>
      <point x="25" y="-150" type="curve" smooth="yes"/>
    </contour>
    <contour>
      <point x="194" y="298" type="line"/>
      <point x="184" y="155" type="line" smooth="yes"/>
      <point x="180" y="92"/>
      <point x="169" y="-14"/>
      <point x="261" y="-14" type="curve" smooth="yes"/>
      <point x="380" y="-14"/>
      <point x="437" y="149"/>
      <point x="452" y="220" type="curve"/>
      <point x="435" y="224" type="line"/>
      <point x="401" y="129"/>
      <point x="351" y="93"/>
      <point x="278" y="93" type="curve" smooth="yes"/>
      <point x="240" y="93"/>
      <point x="204" y="111"/>
      <point x="199" y="168" type="curve"/>
      <point x="213" y="298" type="line"/>
    </contour>
    <contour>
      <point x="475" y="529"/>
      <point x="449" y="517"/>
      <point x="443" y="475" type="curve" smooth="yes"/>
      <point x="440" y="455"/>
      <point x="440" y="393"/>
      <point x="438" y="235" type="curve"/>
      <point x="455" y="235" type="line"/>
      <point x="481" y="401"/>
      <point x="536" y="434"/>
      <point x="536" y="487" type="curve" smooth="yes"/>
      <point x="536" y="517"/>
      <point x="521" y="529"/>
      <point x="498" y="529" type="curve" smooth="yes"/>
    </contour>
    <contour>
      <point x="422" y="120" type="line" smooth="yes"/>
      <point x="413" y="51"/>
      <point x="420" y="-14"/>
      <point x="482" y="-14" type="curve" smooth="yes"/>
      <point x="577" y="-14"/>
      <point x="619" y="151"/>
      <point x="632" y="220" type="curve"/>
      <point x="613" y="224" type="line"/>
      <point x="587" y="129"/>
      <point x="552" y="93"/>
      <point x="499" y="93" type="curve" smooth="yes"/>
      <point x="446" y="93"/>
      <point x="441" y="128"/>
      <point x="460" y="266" type="curve"/>
      <point x="445" y="300" type="line"/>
    </contour>
  </outline>
</glyph>
<glyph name="uni0406" format="1">
  <advance width="339"/>
  <unicode hex="0406"/>
  <outline>
    <component base="I"/>
    <contour>
      <point x="170" y="708" type="move" name="top"/>
    </contour>
  </outline>
</glyph>
<glyph name="uni0409" format="1">
  <advance width="928"/>
  <unicode hex="0409"/>
  <outline>
    <contour>
      <point x="602" y="372"/>
      <point x="554" y="371"/>
      <point x="506" y="370" type="curve"/>
      <point x="508" y="351" type="line"/>
      <point x="526" y="352"/>
      <point x="600" y="353"/>
      <point x="623" y="353" type="curve" smooth="yes"/>
      <point x="753" y="353"/>
      <point x="798" y="300"/>
      <point x="798" y="190" type="curve" smooth="yes"/>
      <point x="798" y="96"/>
      <point x="769" y="20"/>
      <point x="632" y="20" type="curve" smooth="yes"/>
      <point x="583" y="20"/>
      <point x="508" y="18"/>
      <point x="508" y="14" type="curve" smooth="yes"/>
      <point x="508" y="7"/>
      <point x="598" y="0"/>
      <point x="635" y="0" type="curve" smooth="yes"/>
      <point x="842" y="0"/>
      <point x="898" y="98"/>
      <point x="898" y="191" type="curve" smooth="yes"/>
      <point x="898" y="295"/>
      <point x="818" y="372"/>
      <point x="657" y="372" type="curve" smooth="yes"/>
    </contour>
    <component base="uni041B"/>
  </outline>
</glyph>
<glyph name="uni040A" format="1">
  <advance width="997"/>
  <unicode hex="040A"/>
  <outline>
    <contour>
      <point x="671" y="372"/>
      <point x="623" y="370"/>
      <point x="575" y="370" type="curve"/>
      <point x="577" y="351" type="line"/>
      <point x="595" y="352"/>
      <point x="669" y="353"/>
      <point x="692" y="353" type="curve" smooth="yes"/>
      <point x="822" y="353"/>
      <point x="867" y="300"/>
      <point x="867" y="190" type="curve" smooth="yes"/>
      <point x="867" y="96"/>
      <point x="838" y="20"/>
      <point x="701" y="20" type="curve" smooth="yes"/>
      <point x="652" y="20"/>
      <point x="577" y="18"/>
      <point x="577" y="14" type="curve" smooth="yes"/>
      <point x="577" y="7"/>
      <point x="667" y="0"/>
      <point x="704" y="0" type="curve" smooth="yes"/>
      <point x="911" y="0"/>
      <point x="967" y="98"/>
      <point x="967" y="191" type="curve" smooth="yes"/>
      <point x="967" y="295"/>
      <point x="887" y="372"/>
      <point x="726" y="372" type="curve" smooth="yes"/>
    </contour>
    <component base="H"/>
  </outline>
</glyph>
<glyph name="uni041F" format="1">
  <advance width="757"/>
  <unicode hex="041F"/>
  <outline>
    <contour>
      <point x="687" y="706"/>
      <point x="639" y="705"/>
      <point x="587" y="705" type="curve" smooth="yes"/>
      <point x="509" y="705"/>
      <point x="427" y="708"/>
      <point x="380" y="708" type="curve" smooth="yes"/>
      <point x="333" y="708"/>
      <point x="248" y="705"/>
      <point x="170" y="705" type="curve" smooth="yes"/>
      <point x="118" y="705"/>
      <point x="70" y="706"/>
      <point x="42" y="708" type="curve"/>
      <point x="42" y="688" type="line"/>
      <point x="110" y="685"/>
      <point x="123" y="675"/>
      <point x="123" y="602" type="curve" smooth="yes"/>
      <point x="123" y="106" type="line" smooth="yes"/>
      <point x="123" y="33"/>
      <point x="110" y="23"/>
      <point x="42" y="20" type="curve"/>
      <point x="42" y="0" type="line"/>
      <point x="70" y="2"/>
      <point x="118" y="3"/>
      <point x="170" y="3" type="curve" smooth="yes"/>
      <point x="216" y="3"/>
      <point x="266" y="2"/>
      <point x="297" y="0" type="curve"/>
      <point x="297" y="20" type="line"/>
      <point x="229" y="23"/>
      <point x="216" y="33"/>
      <point x="216" y="106" type="curve" smooth="yes"/>
      <point x="216" y="602" type="line" smooth="yes"/>
      <point x="216" y="675"/>
      <point x="229" y="688"/>
      <point x="297" y="688" type="curve" smooth="yes"/>
      <point x="460" y="688" type="line" smooth="yes"/>
      <point x="528" y="688"/>
      <point x="541" y="675"/>
      <point x="541" y="602" type="curve" smooth="yes"/>
      <point x="541" y="106" type="line" smooth="yes"/>
      <point x="541" y="33"/>
      <point x="528" y="23"/>
      <point x="460" y="20" type="curve"/>
      <point x="460" y="0" type="line"/>
      <point x="491" y="2"/>
      <point x="541" y="3"/>
      <point x="587" y="3" type="curve" smooth="yes"/>
      <point x="639" y="3"/>
      <point x="687" y="2"/>
      <point x="715" y="0" type="curve"/>
      <point x="715" y="20" type="line"/>
      <point x="647" y="23"/>
      <point x="634" y="33"/>
      <point x="634" y="106" type="curve" smooth="yes"/>
      <point x="634" y="602" type="line" smooth="yes"/>
      <point x="634" y="675"/>
      <point x="647" y="685"/>
      <point x="715" y="688" type="curve"/>
      <point x="715" y="708" type="line"/>
    </contour>
  </outline>
</glyph>
<glyph name="uni0423" format="1">
  <advance width="647"/>
  <unicode hex="0423"/>
  <outline>
    <contour>
      <point x="636" y="706"/>
      <point x="615" y="705"/>
      <point x="581" y="705" type="curve" smooth="yes"/>
      <point x="546" y="705"/>
      <point x="504" y="706"/>
      <point x="466" y="708" type="curve"/>
      <point x="466" y="688" type="line"/>
      <point x="550" y="686"/>
      <point x="582" y="659"/>
      <point x="527" y="549" type="curve" smooth="yes"/>
      <point x="363" y="220" type="line"/>
      <point x="374" y="226" type="line"/>
      <point x="166" y="614" type="line" smooth="yes"/>
      <point x="136" y="672"/>
      <point x="176" y="687"/>
      <point x="226" y="687" type="curve"/>
      <point x="226" y="708" type="line"/>
      <point x="183" y="705"/>
      <point x="130" y="705"/>
      <point x="86" y="705" type="curve" smooth="yes"/>
      <point x="52" y="705"/>
      <point x="24" y="706"/>
      <point x="-2" y="708" type="curve"/>
      <point x="-2" y="687" type="line"/>
      <point x="12" y="687"/>
      <point x="29" y="680"/>
      <point x="56" y="631" type="curve" smooth="yes"/>
      <point x="326" y="135" type="line"/>
      <point x="343" y="135" type="line"/>
      <point x="576" y="599" type="line" smooth="yes"/>
      <point x="606" y="658"/>
      <point x="630" y="682"/>
      <point x="656" y="688" type="curve"/>
      <point x="656" y="708" type="line"/>
    </contour>
    <contour>
      <point x="297" y="83" type="line" smooth="yes"/>
      <point x="273" y="33"/>
      <point x="247" y="6"/>
      <point x="211" y="6" type="curve" smooth="yes"/>
      <point x="209" y="6"/>
      <point x="207" y="6"/>
      <point x="205" y="7" type="curve"/>
      <point x="219" y="15"/>
      <point x="232" y="31"/>
      <point x="232" y="52" type="curve" smooth="yes"/>
      <point x="232" y="83"/>
      <point x="209" y="99"/>
      <point x="181" y="99" type="curve" smooth="yes"/>
      <point x="151" y="99"/>
      <point x="128" y="78"/>
      <point x="128" y="46" type="curve" smooth="yes"/>
      <point x="128" y="7"/>
      <point x="158" y="-14"/>
      <point x="198" y="-14" type="curve" smooth="yes"/>
      <point x="222" y="-14"/>
      <point x="252" y="-6"/>
      <point x="273" y="15" type="curve" smooth="yes"/>
      <point x="287" y="29"/>
      <point x="300" y="47"/>
      <point x="317" y="82" type="curve" smooth="yes"/>
      <point x="364" y="177" type="line"/>
      <point x="346" y="184" type="line"/>
    </contour>
    <contour>
      <point x="333" y="708" type="move" name="top"/>
    </contour>
  </outline>
</glyph>
<glyph name="uni0424" format="1">
  <advance width="849"/>
  <unicode hex="0424"/>
  <outline>
    <contour>
      <point x="191" y="642"/>
      <point x="27" y="528"/>
      <point x="27" y="358" type="curve" smooth="yes"/>
      <point x="27" y="171"/>
      <point x="186" y="66"/>
      <point x="424" y="66" type="curve" smooth="yes"/>
      <point x="658" y="66"/>
      <point x="822" y="184"/>
      <point x="822" y="360" type="curve" smooth="yes"/>
      <point x="822" y="541"/>
      <point x="663" y="642"/>
      <point x="425" y="642" type="curve" smooth="yes"/>
    </contour>
    <contour>
      <point x="592" y="624"/>
      <point x="722" y="521"/>
      <point x="722" y="356" type="curve" smooth="yes"/>
      <point x="722" y="197"/>
      <point x="606" y="84"/>
      <point x="428" y="84" type="curve" smooth="yes"/>
      <point x="257" y="84"/>
      <point x="127" y="191"/>
      <point x="127" y="362" type="curve" smooth="yes"/>
      <point x="127" y="515"/>
      <point x="243" y="624"/>
      <point x="421" y="624" type="curve" smooth="yes"/>
    </contour>
    <contour>
      <point x="522" y="780"/>
      <point x="472" y="779"/>
      <point x="426" y="779" type="curve" smooth="yes"/>
      <point x="374" y="779"/>
      <point x="326" y="780"/>
      <point x="298" y="782" type="curve"/>
      <point x="298" y="762" type="line"/>
      <point x="366" y="759"/>
      <point x="379" y="750"/>
      <point x="379" y="676" type="curve" smooth="yes"/>
      <point x="379" y="32" type="line" smooth="yes"/>
      <point x="379" y="-41"/>
      <point x="366" y="-51"/>
      <point x="298" y="-54" type="curve"/>
      <point x="298" y="-74" type="line"/>
      <point x="326" y="-72"/>
      <point x="374" y="-71"/>
      <point x="426" y="-71" type="curve" smooth="yes"/>
      <point x="472" y="-71"/>
      <point x="522" y="-72"/>
      <point x="553" y="-74" type="curve"/>
      <point x="553" y="-54" type="line"/>
      <point x="485" y="-51"/>
      <point x="472" y="-42"/>
      <point x="472" y="32" type="curve" smooth="yes"/>
      <point x="472" y="676" type="line" smooth="yes"/>
      <point x="472" y="749"/>
      <point x="485" y="759"/>
      <point x="553" y="762" type="curve"/>
      <point x="553" y="782" type="line"/>
    </contour>
  </outline>
</glyph>
<glyph name="uni0427" format="1">
  <advance width="673"/>
  <unicode hex="0427"/>
  <outline>
    <contour>
      <point x="231" y="707"/>
      <point x="184" y="704"/>
      <point x="140" y="704" type="curve" smooth="yes"/>
      <point x="96" y="704"/>
      <point x="40" y="707"/>
      <point x="17" y="708" type="curve"/>
      <point x="17" y="687" type="line"/>
      <point x="72" y="687"/>
      <point x="93" y="671"/>
      <point x="93" y="615" type="curve" smooth="yes"/>
      <point x="93" y="451" type="line" smooth="yes"/>
      <point x="93" y="381"/>
      <point x="104" y="345"/>
      <point x="141" y="317" type="curve" smooth="yes"/>
      <point x="169" y="296"/>
      <point x="212" y="282"/>
      <point x="269" y="282" type="curve" smooth="yes"/>
      <point x="339" y="282"/>
      <point x="419" y="301"/>
      <point x="457" y="319" type="curve"/>
      <point x="457" y="336" type="line"/>
      <point x="421" y="323"/>
      <point x="367" y="314"/>
      <point x="301" y="314" type="curve" smooth="yes"/>
      <point x="198" y="314"/>
      <point x="186" y="366"/>
      <point x="186" y="429" type="curve" smooth="yes"/>
      <point x="186" y="615" type="line" smooth="yes"/>
      <point x="186" y="671"/>
      <point x="204" y="687"/>
      <point x="252" y="687" type="curve"/>
      <point x="252" y="708" type="line"/>
    </contour>
    <contour>
      <point x="600" y="706"/>
      <point x="550" y="705"/>
      <point x="504" y="705" type="curve" smooth="yes"/>
      <point x="452" y="705"/>
      <point x="404" y="706"/>
      <point x="376" y="708" type="curve"/>
      <point x="376" y="688" type="line"/>
      <point x="444" y="685"/>
      <point x="457" y="675"/>
      <point x="457" y="602" type="curve" smooth="yes"/>
      <point x="457" y="106" type="line" smooth="yes"/>
      <point x="457" y="33"/>
      <point x="440" y="23"/>
      <point x="356" y="20" type="curve"/>
      <point x="356" y="0" type="line"/>
      <point x="391" y="2"/>
      <point x="449" y="3"/>
      <point x="503" y="3" type="curve" smooth="yes"/>
      <point x="555" y="3"/>
      <point x="603" y="2"/>
      <point x="631" y="0" type="curve"/>
      <point x="631" y="20" type="line"/>
      <point x="563" y="23"/>
      <point x="550" y="33"/>
      <point x="550" y="106" type="curve" smooth="yes"/>
      <point x="550" y="602" type="line" smooth="yes"/>
      <point x="550" y="675"/>
      <point x="563" y="685"/>
      <point x="631" y="688" type="curve"/>
      <point x="631" y="708" type="line"/>
    </contour>
  </outline>
</glyph>
<glyph name="uni042F" format="1">
  <advance width="653"/>
  <unicode hex="042F"/>
  <outline>
    <contour>
      <point x="583" y="706"/>
      <point x="533" y="705"/>
      <point x="489" y="705" type="curve" smooth="yes"/>
      <point x="426" y="705"/>
      <point x="362" y="707"/>
      <point x="338" y="707" type="curve" smooth="yes"/>
      <point x="177" y="707"/>
      <point x="97" y="631"/>
      <point x="97" y="533" type="curve" smooth="yes"/>
      <point x="97" y="444"/>
      <point x="153" y="336"/>
      <point x="360" y="336" type="curve" smooth="yes"/>
      <point x="456" y="336" type="line"/>
      <point x="456" y="336"/>
      <point x="456" y="356"/>
      <point x="456" y="356" type="curve"/>
      <point x="370" y="356" type="line" smooth="yes"/>
      <point x="228" y="356"/>
      <point x="197" y="430"/>
      <point x="197" y="529" type="curve" smooth="yes"/>
      <point x="197" y="627"/>
      <point x="242" y="688"/>
      <point x="363" y="688" type="curve" smooth="yes"/>
      <point x="424" y="688"/>
      <point x="437" y="671"/>
      <point x="437" y="602" type="curve" smooth="yes"/>
      <point x="437" y="106" type="line" smooth="yes"/>
      <point x="437" y="33"/>
      <point x="424" y="23"/>
      <point x="356" y="20" type="curve"/>
      <point x="356" y="0" type="line"/>
      <point x="387" y="2"/>
      <point x="437" y="3"/>
      <point x="483" y="3" type="curve" smooth="yes"/>
      <point x="535" y="3"/>
      <point x="583" y="2"/>
      <point x="611" y="0" type="curve"/>
      <point x="611" y="20" type="line"/>
      <point x="543" y="23"/>
      <point x="530" y="33"/>
      <point x="530" y="106" type="curve" smooth="yes"/>
      <point x="530" y="602" type="line" smooth="yes"/>
      <point x="530" y="675"/>
      <point x="543" y="685"/>
      <point x="611" y="688" type="curve"/>
      <point x="611" y="708" type="line"/>
    </contour>
    <contour>
      <point x="340" y="348"/>
      <point x="311" y="345"/>
      <point x="274" y="339" type="curve" smooth="yes"/>
      <point x="185" y="324"/>
      <point x="149" y="290"/>
      <point x="130" y="207" type="curve" smooth="yes"/>
      <point x="107" y="105" type="line" smooth="yes"/>
      <point x="94" y="46"/>
      <point x="85" y="22"/>
      <point x="56" y="23" type="curve" smooth="yes"/>
      <point x="33" y="24"/>
      <point x="21" y="38"/>
      <point x="3" y="61" type="curve"/>
      <point x="-12" y="50" type="line"/>
      <point x="16" y="9"/>
      <point x="41" y="-14"/>
      <point x="95" y="-14" type="curve" smooth="yes"/>
      <point x="145" y="-14"/>
      <point x="183" y="9"/>
      <point x="202" y="94" type="curve" smooth="yes"/>
      <point x="224" y="194" type="line" smooth="yes"/>
      <point x="243" y="279"/>
      <point x="258" y="336"/>
      <point x="337" y="336" type="curve" smooth="yes"/>
      <point x="445" y="336" type="line"/>
      <point x="447" y="353" type="line"/>
    </contour>
  </outline>
</glyph>
<glyph name="uni0434" format="1">
  <advance width="524"/>
  <unicode hex="0434"/>
  <outline>
    <contour>
      <point x="468" y="513"/>
      <point x="416" y="510"/>
      <point x="370" y="510" type="curve" smooth="yes"/>
      <point x="325" y="510"/>
      <point x="298" y="514"/>
      <point x="261" y="514" type="curve" smooth="yes"/>
      <point x="224" y="514"/>
      <point x="188" y="510"/>
      <point x="155" y="510" type="curve" smooth="yes"/>
      <point x="122" y="510"/>
      <point x="98" y="513"/>
      <point x="87" y="514" type="curve"/>
      <point x="87" y="493" type="line"/>
      <point x="142" y="493"/>
      <point x="170" y="477"/>
      <point x="166" y="421" type="curve" smooth="yes"/>
      <point x="157" y="303"/>
      <point x="143" y="183"/>
      <point x="110" y="96" type="curve" smooth="yes"/>
      <point x="96" y="59"/>
      <point x="68" y="21"/>
      <point x="26" y="21" type="curve"/>
      <point x="47" y="9" type="line"/>
      <point x="89" y="17"/>
      <point x="111" y="55"/>
      <point x="126" y="91" type="curve" smooth="yes"/>
      <point x="163" y="180"/>
      <point x="175" y="312"/>
      <point x="184" y="421" type="curve" smooth="yes"/>
      <point x="189" y="477"/>
      <point x="202" y="493"/>
      <point x="250" y="493" type="curve" smooth="yes"/>
      <point x="259" y="493" type="line" smooth="yes"/>
      <point x="307" y="493"/>
      <point x="325" y="477"/>
      <point x="325" y="421" type="curve" smooth="yes"/>
      <point x="325" y="93" type="line" smooth="yes"/>
      <point x="325" y="37"/>
      <point x="307" y="21"/>
      <point x="259" y="21" type="curve" smooth="yes"/>
      <point x="7" y="21" type="line"/>
      <point x="12" y="-26"/>
      <point x="14" y="-72"/>
      <point x="14" y="-95" type="curve" smooth="yes"/>
      <point x="14" y="-119"/>
      <point x="13" y="-142"/>
      <point x="11" y="-157" type="curve"/>
      <point x="34" y="-157" type="line"/>
      <point x="44" y="-39"/>
      <point x="56" y="0"/>
      <point x="138" y="0" type="curve" smooth="yes"/>
      <point x="272" y="0"/>
      <point x="307" y="4"/>
      <point x="371" y="4" type="curve" smooth="yes"/>
      <point x="453" y="4"/>
      <point x="465" y="-39"/>
      <point x="475" y="-157" type="curve"/>
      <point x="498" y="-157" type="line"/>
      <point x="496" y="-142"/>
      <point x="495" y="-119"/>
      <point x="495" y="-95" type="curve" smooth="yes"/>
      <point x="495" y="-72"/>
      <point x="497" y="-26"/>
      <point x="502" y="21" type="curve"/>
      <point x="430" y="21"/>
      <point x="415" y="37"/>
      <point x="415" y="93" type="curve" smooth="yes"/>
      <point x="415" y="421" type="line" smooth="yes"/>
      <point x="415" y="477"/>
      <point x="436" y="493"/>
      <point x="491" y="493" type="curve"/>
      <point x="491" y="514" type="line"/>
    </contour>
  </outline>
</glyph>
<glyph name="uni0442" format="1">
  <advance width="554"/>
  <unicode hex="0442"/>
  <outline>
    <contour>
      <point x="426" y="514" type="line" smooth="yes"/>
      <point x="381" y="514"/>
      <point x="326" y="511"/>
      <point x="276" y="511" type="curve" smooth="yes"/>
      <point x="226" y="511"/>
      <point x="173" y="513"/>
      <point x="128" y="513" type="curve" smooth="yes"/>
      <point x="32" y="513" type="line"/>
      <point x="37" y="466"/>
      <point x="39" y="420"/>
      <point x="39" y="397" type="curve" smooth="yes"/>
      <point x="39" y="373"/>
      <point x="38" y="350"/>
      <point x="36" y="335" type="curve"/>
      <point x="59" y="335" type="line"/>
      <point x="69" y="473"/>
      <point x="101" y="494"/>
      <point x="183" y="494" type="curve" smooth="yes"/>
      <point x="232" y="494" type="line"/>
      <point x="232" y="103" type="line" smooth="yes"/>
      <point x="232" y="38"/>
      <point x="192" y="21"/>
      <point x="126" y="21" type="curve"/>
      <point x="126" y="0" type="line"/>
      <point x="157" y="1"/>
      <point x="215" y="4"/>
      <point x="277" y="4" type="curve" smooth="yes"/>
      <point x="339" y="4"/>
      <point x="397" y="1"/>
      <point x="428" y="0" type="curve"/>
      <point x="428" y="21" type="line"/>
      <point x="362" y="21"/>
      <point x="322" y="38"/>
      <point x="322" y="103" type="curve" smooth="yes"/>
      <point x="322" y="494" type="line"/>
      <point x="361" y="494" type="line" smooth="yes"/>
      <point x="443" y="494"/>
      <point x="485" y="474"/>
      <point x="495" y="336" type="curve"/>
      <point x="518" y="336" type="line"/>
      <point x="516" y="351"/>
      <point x="515" y="374"/>
      <point x="515" y="398" type="curve" smooth="yes"/>
      <point x="515" y="421"/>
      <point x="517" y="467"/>
      <point x="522" y="514" type="curve"/>
    </contour>
  </outline>
</glyph>
<glyph name="uni044B" format="1">
  <advance width="758"/>
  <unicode hex="044B"/>
  <outline>
    <contour>
      <point x="246" y="513"/>
      <point x="193" y="510"/>
      <point x="149" y="510" type="curve" smooth="yes"/>
      <point x="105" y="510"/>
      <point x="58" y="513"/>
      <point x="37" y="514" type="curve"/>
      <point x="37" y="493" type="line"/>
      <point x="85" y="493"/>
      <point x="103" y="477"/>
      <point x="103" y="421" type="curve" smooth="yes"/>
      <point x="103" y="93" type="line" smooth="yes"/>
      <point x="103" y="37"/>
      <point x="82" y="21"/>
      <point x="27" y="21" type="curve"/>
      <point x="27" y="0" type="line"/>
      <point x="50" y="1"/>
      <point x="103" y="4"/>
      <point x="145" y="4" type="curve" smooth="yes"/>
      <point x="181" y="4"/>
      <point x="219" y="0"/>
      <point x="247" y="0" type="curve" smooth="yes"/>
      <point x="407" y="0"/>
      <point x="463" y="83"/>
      <point x="463" y="157" type="curve" smooth="yes"/>
      <point x="463" y="239"/>
      <point x="407" y="300"/>
      <point x="262" y="300" type="curve" smooth="yes"/>
      <point x="218" y="300"/>
      <point x="175" y="300"/>
      <point x="131" y="300" type="curve"/>
      <point x="133" y="283" type="line"/>
      <point x="156" y="283"/>
      <point x="180" y="283"/>
      <point x="203" y="283" type="curve" smooth="yes"/>
      <point x="321" y="283"/>
      <point x="369" y="243"/>
      <point x="369" y="151" type="curve" smooth="yes"/>
      <point x="369" y="82"/>
      <point x="343" y="21"/>
      <point x="236" y="21" type="curve" smooth="yes"/>
      <point x="204" y="21"/>
      <point x="193" y="39"/>
      <point x="193" y="93" type="curve" smooth="yes"/>
      <point x="193" y="421" type="line" smooth="yes"/>
      <point x="193" y="477"/>
      <point x="214" y="493"/>
      <point x="269" y="493" type="curve"/>
      <point x="269" y="514" type="line"/>
    </contour>
    <contour>
      <point x="700" y="513"/>
      <point x="653" y="510"/>
      <point x="609" y="510" type="curve" smooth="yes"/>
      <point x="569" y="510"/>
      <point x="520" y="513"/>
      <point x="499" y="514" type="curve"/>
      <point x="499" y="493" type="line"/>
      <point x="547" y="493"/>
      <point x="565" y="477"/>
      <point x="565" y="421" type="curve" smooth="yes"/>
      <point x="565" y="93" type="line" smooth="yes"/>
      <point x="565" y="37"/>
      <point x="547" y="21"/>
      <point x="499" y="21" type="curve"/>
      <point x="499" y="0" type="line"/>
      <point x="520" y="1"/>
      <point x="569" y="4"/>
      <point x="609" y="4" type="curve" smooth="yes"/>
      <point x="653" y="4"/>
      <point x="708" y="1"/>
      <point x="731" y="0" type="curve"/>
      <point x="731" y="21" type="line"/>
      <point x="676" y="21"/>
      <point x="655" y="37"/>
      <point x="655" y="93" type="curve" smooth="yes"/>
      <point x="655" y="421" type="line" smooth="yes"/>
      <point x="655" y="477"/>
      <point x="673" y="493"/>
      <point x="721" y="493" type="curve"/>
      <point x="721" y="514" type="line"/>
    </contour>
  </outline>
</glyph>
<glyph name="endash" format="1">
  <advance width="571"/>
  <unicode hex="2013"/>
  <outline>
    <contour>
      <point x="59" y="289" type="line"/>
      <point x="59" y="249" type="line"/>
      <point x="512" y="249" type="line"/>
      <point x="512" y="289" type="line"/>
    </contour>
  </outline>
</glyph>
<glyph name="dagger" format="1">
  <advance width="378"/>
  <unicode hex="2020"/>
  <outline>
    <contour>
      <point x="175" y="435" type="line"/>
      <point x="168" y="415"/>
      <point x="169" y="396"/>
      <point x="152" y="385" type="curve" smooth="yes"/>
      <point x="152" y="278"/>
      <point x="157" y="-98"/>
      <point x="189" y="-156" type="curve"/>
      <point x="220" y="-98"/>
      <point x="226" y="278"/>
      <point x="226" y="385" type="curve"/>
      <point x="209" y="396"/>
      <point x="209" y="415"/>
      <point x="203" y="435" type="curve"/>
      <point x="189" y="441" type="line"/>
    </contour>
    <contour>
      <point x="189" y="455" type="line"/>
      <point x="72" y="480" type="line"/>
      <point x="34" y="455" type="line"/>
      <point x="72" y="430" type="line"/>
      <point x="189" y="454" type="line"/>
      <point x="306" y="430" type="line"/>
      <point x="344" y="455" type="line"/>
      <point x="306" y="480" type="line"/>
    </contour>
    <contour>
      <point x="164" y="657"/>
      <point x="159" y="628"/>
      <point x="159" y="612" type="curve"/>
      <point x="181" y="612"/>
      <point x="161" y="484"/>
      <point x="185" y="470" type="curve"/>
      <point x="193" y="470" type="line"/>
      <point x="217" y="484"/>
      <point x="197" y="612"/>
      <point x="219" y="612" type="curve"/>
      <point x="219" y="628"/>
      <point x="214" y="657"/>
      <point x="189" y="657" type="curve"/>
    </contour>
  </outline>
</glyph>
<glyph name="bullet" format="1">
  <advance width="441"/>
  <unicode hex="2022"/>
  <outline>
    <contour>
      <point x="141" y="412"/>
      <point x="78" y="348"/>
      <point x="78" y="269" type="curve" smooth="yes"/>
      <point x="78" y="190"/>
      <point x="141" y="127"/>
      <point x="220" y="127" type="curve" smooth="yes"/>
      <point x="299" y="127"/>
      <point x="363" y="190"/>
      <point x="363" y="269" type="curve" smooth="yes"/>
      <point x="363" y="348"/>
      <point x="299" y="412"/>
      <point x="220" y="412" type="curve" smooth="yes"/>
    </contour>
  </outline>
</glyph>
<glyph name="fraction" format="1">
  <advance width="60"/>
  <unicode hex="2044"/>
  <outline>
    <contour>
      <point x="-267" y="-42" type="line"/>
      <point x="-248" y="-55" type="line"/>
      <point x="337" y="811" type="line"/>
      <point x="318" y="824" type="line"/>
    </contour>
  </outline>
</glyph>
<glyph name="radical" format="1">
  <advance width="724"/>
  <unicode hex="221A"/>
  <outline>
    <contour>
      <point x="718" y="844" type="line" smooth="yes"/>
      <point x="694" y="844"/>
      <point x="564" y="841"/>
      <point x="536" y="844" type="curve"/>
      <point x="536" y="823" type="line"/>
      <point x="553" y="823"/>
      <point x="553" y="812"/>
      <point x="545" y="784" type="curve" smooth="yes"/>
      <point x="346" y="127" type="line"/>
      <point x="250" y="365" type="line" smooth="yes"/>
      <point x="240" y="391"/>
      <point x="243" y="403"/>
      <point x="256" y="403" type="curve"/>
      <point x="256" y="424" type="line"/>
      <point x="210" y="421"/>
      <point x="153" y="418"/>
      <point x="106" y="418" type="curve" smooth="yes"/>
      <point x="72" y="418"/>
      <point x="44" y="420"/>
      <point x="18" y="424" type="curve"/>
      <point x="18" y="403" type="line"/>
      <point x="112" y="398"/>
      <point x="148" y="390"/>
      <point x="172" y="332" type="curve" smooth="yes"/>
      <point x="312" y="-5" type="line"/>
      <point x="317" y="-5"/>
      <point x="323" y="-5"/>
      <point x="328" y="-5" type="curve"/>
      <point x="561" y="767" type="line" smooth="yes"/>
      <point x="573" y="804"/>
      <point x="585" y="811"/>
      <point x="609" y="815" type="curve" smooth="yes"/>
      <point x="626" y="818"/>
      <point x="686" y="819"/>
      <point x="728" y="819" type="curve"/>
      <point x="728" y="844" type="line"/>
    </contour>
  </outline>
</glyph>
<glyph name="infinity" format="1">
  <advance width="842"/>
  <unicode hex="221E"/>
  <outline>
    <contour>
      <point x="515" y="476"/>
      <point x="321" y="304"/>
      <point x="172" y="304" type="curve" smooth="yes"/>
      <point x="115" y="304"/>
      <point x="84" y="329"/>
      <point x="84" y="366" type="curve" smooth="yes"/>
      <point x="84" y="411"/>
      <point x="134" y="452"/>
      <point x="205" y="452" type="curve" smooth="yes"/>
      <point x="262" y="452"/>
      <point x="335" y="410"/>
      <point x="405" y="363" type="curve"/>
      <point x="427" y="373" type="line"/>
      <point x="344" y="428"/>
      <point x="268" y="472"/>
      <point x="205" y="472" type="curve" smooth="yes"/>
      <point x="123" y="472"/>
      <point x="61" y="424"/>
      <point x="61" y="351" type="curve" smooth="yes"/>
      <point x="61" y="289"/>
      <point x="103" y="233"/>
      <point x="188" y="233" type="curve" smooth="yes"/>
      <point x="328" y="233"/>
      <point x="522" y="405"/>
      <point x="671" y="405" type="curve" smooth="yes"/>
      <point x="728" y="405"/>
      <point x="759" y="380"/>
      <point x="759" y="343" type="curve" smooth="yes"/>
      <point x="759" y="298"/>
      <point x="709" y="257"/>
      <point x="638" y="257" type="curve" smooth="yes"/>
      <point x="581" y="257"/>
      <point x="508" y="299"/>
      <point x="438" y="346" type="curve"/>
      <point x="416" y="336" type="line"/>
      <point x="499" y="281"/>
      <point x="575" y="237"/>
      <point x="638" y="237" type="curve" smooth="yes"/>
      <point x="720" y="237"/>
      <point x="782" y="285"/>
      <point x="782" y="358" type="curve" smooth="yes"/>
      <point x="782" y="420"/>
      <point x="740" y="476"/>
      <point x="655" y="476" type="curve" smooth="yes"/>
    </contour>
  </outline>
</glyph>
<glyph name="notequal" format="1">
  <advance width="647"/>
  <unicode hex="2260"/>
  <outline>
    <contour>
      <point x="185" y="146" type="line"/>
      <point x="213" y="130" type="line"/>
      <point x="464" y="564" type="line"/>
      <point x="436" y="580" type="line"/>
    </contour>
    <component base="equal" xOffset="-3"/>
  </outline>
</glyph>
<glyph name="Euro.smcp" format="1">
  <advance width="585"/>
  <outline>
    <contour>
      <point x="219" y="622"/>
      <point x="107" y="492"/>
      <point x="107" y="298" type="curve" smooth="yes"/>
      <point x="107" y="99"/>
      <point x="214" y="-14"/>
      <point x="374" y="-14" type="curve" smooth="yes"/>
      <point x="411" y="-14"/>
      <point x="451" y="-6"/>
      <point x="482" y="15" type="curve" smooth="yes"/>
      <point x="514" y="37"/>
      <point x="531" y="63"/>
      <point x="531" y="91" type="curve" smooth="yes"/>
      <point x="531" y="120"/>
      <point x="512" y="141"/>
      <point x="485" y="141" type="curve" smooth="yes"/>
      <point x="461" y="141"/>
      <point x="438" y="125"/>
      <point x="438" y="97" type="curve" smooth="yes"/>
      <point x="438" y="74"/>
      <point x="455" y="50"/>
      <point x="484" y="49" type="curve"/>
      <point x="466" y="13"/>
      <point x="416" y="4"/>
      <point x="378" y="4" type="curve" smooth="yes"/>
      <point x="268" y="4"/>
      <point x="207" y="109"/>
      <point x="207" y="302" type="curve" smooth="yes"/>
      <point x="207" y="489"/>
      <point x="268" y="605"/>
      <point x="378" y="605" type="curve" smooth="yes"/>
      <point x="421" y="605"/>
      <point x="469" y="592"/>
      <point x="485" y="559" type="curve"/>
      <point x="456" y="558"/>
      <point x="439" y="534"/>
      <point x="439" y="511" type="curve" smooth="yes"/>
      <point x="439" y="483"/>
      <point x="462" y="467"/>
      <point x="486" y="467" type="curve" smooth="yes"/>
      <point x="513" y="467"/>
      <point x="532" y="488"/>
      <point x="532" y="517" type="curve" smooth="yes"/>
      <point x="532" y="545"/>
      <point x="514" y="571"/>
      <point x="483" y="593" type="curve" smooth="yes"/>
      <point x="453" y="614"/>
      <point x="412" y="622"/>
      <point x="375" y="622" type="curve" smooth="yes"/>
    </contour>
    <contour>
      <point x="35" y="267" type="line"/>
      <point x="35" y="247" type="line"/>
      <point x="355" y="247" type="line"/>
      <point x="367" y="267" type="line"/>
    </contour>
    <contour>
      <point x="35" y="367" type="line"/>
      <point x="35" y="347" type="line"/>
      <point x="412" y="347" type="line"/>
      <point x="423" y="367" type="line"/>
    </contour>
  </outline>
</glyph>
<glyph name="T_h" format="1">
  <advance width="1130"/>
  <outline>
    <contour>
      <point x="703" y="773"/>
      <point x="671" y="769"/>
      <point x="638" y="768" type="curve"/>
      <point x="638" y="92" type="line" smooth="yes"/>
      <point x="638" y="36"/>
      <point x="617" y="20"/>
      <point x="562" y="20" type="curve"/>
      <point x="562" y="-1" type="line"/>
      <point x="585" y="0"/>
      <point x="638" y="3"/>
      <point x="682" y="3" type="curve" smooth="yes"/>
      <point x="726" y="3"/>
      <point x="773" y="0"/>
      <point x="794" y="-1" type="curve"/>
      <point x="794" y="20" type="line"/>
      <point x="746" y="20"/>
      <point x="728" y="36"/>
      <point x="728" y="92" type="curve" smooth="yes"/>
      <point x="728" y="315" type="line" smooth="yes"/>
      <point x="728" y="421"/>
      <point x="786" y="496"/>
      <point x="868" y="496" type="curve" smooth="yes"/>
      <point x="940" y="496"/>
      <point x="949" y="443"/>
      <point x="949" y="381" type="curve" smooth="yes"/>
      <point x="949" y="92" type="line" smooth="yes"/>
      <point x="949" y="36"/>
      <point x="931" y="20"/>
      <point x="883" y="20" type="curve"/>
      <point x="883" y="-1" type="line"/>
      <point x="904" y="0"/>
      <point x="951" y="3"/>
      <point x="995" y="3" type="curve" smooth="yes"/>
      <point x="1039" y="3"/>
      <point x="1092" y="0"/>
      <point x="1115" y="-1" type="curve"/>
      <point x="1115" y="20" type="line"/>
      <point x="1060" y="20"/>
      <point x="1039" y="36"/>
      <point x="1039" y="92" type="curve" smooth="yes"/>
      <point x="1039" y="359" type="line" smooth="yes"/>
      <point x="1039" y="427"/>
      <point x="1029" y="463"/>
      <point x="1004" y="490" type="curve" smooth="yes"/>
      <point x="981" y="514"/>
      <point x="949" y="528"/>
      <point x="898" y="528" type="curve" smooth="yes"/>
      <point x="830" y="528"/>
      <point x="763" y="498"/>
      <point x="728" y="408" type="curve"/>
      <point x="728" y="782" type="line"/>
    </contour>
    <contour>
      <point x="561" y="705"/>
      <point x="421" y="705"/>
      <point x="321" y="705" type="curve" smooth="yes"/>
      <point x="236" y="705"/>
      <point x="115" y="705"/>
      <point x="29" y="708" type="curve"/>
      <point x="34" y="657"/>
      <point x="36" y="605"/>
      <point x="36" y="580" type="curve" smooth="yes"/>
      <point x="36" y="548"/>
      <point x="35" y="519"/>
      <point x="33" y="498" type="curve"/>
      <point x="56" y="498" type="line"/>
      <point x="70" y="637"/>
      <point x="85" y="685"/>
      <point x="210" y="685" type="curve" smooth="yes"/>
      <point x="274" y="685" type="line"/>
      <point x="274" y="116" type="line" smooth="yes"/>
      <point x="274" y="35"/>
      <point x="257" y="23"/>
      <point x="173" y="20" type="curve"/>
      <point x="173" y="0" type="line"/>
      <point x="205" y="2"/>
      <point x="261" y="3"/>
      <point x="321" y="3" type="curve" smooth="yes"/>
      <point x="375" y="3"/>
      <point x="433" y="2"/>
      <point x="468" y="0" type="curve"/>
      <point x="468" y="20" type="line"/>
      <point x="384" y="23"/>
      <point x="367" y="35"/>
      <point x="367" y="116" type="curve" smooth="yes"/>
      <point x="367" y="685" type="line"/>
      <point x="649" y="685" type="line"/>
      <point x="662" y="708" type="line"/>
    </contour>
    <contour>
      <point x="565" y="257" type="move" name="center"/>
    </contour>
    <contour>
      <point x="565" y="0" type="move" name="bottom"/>
    </contour>
    <contour>
      <point x="565" y="514" type="move" name="top"/>
    </contour>
  </outline>
</glyph>
<glyph name="ampersand.smcp" format="1">
  <advance width="799"/>
  <outline>
    <contour>
      <point x="176" y="622"/>
      <point x="117" y="570"/>
      <point x="117" y="507" type="curve" smooth="yes"/>
      <point x="117" y="459"/>
      <point x="151" y="419"/>
      <point x="218" y="398" type="curve"/>
      <point x="173" y="386"/>
      <point x="53" y="333"/>
      <point x="53" y="195" type="curve" smooth="yes"/>
      <point x="53" y="65"/>
      <point x="197" y="-14"/>
      <point x="366" y="-14" type="curve" smooth="yes"/>
      <point x="565" y="-14"/>
      <point x="675" y="93"/>
      <point x="675" y="216" type="curve" smooth="yes"/>
      <point x="675" y="263"/>
      <point x="650" y="329"/>
      <point x="558" y="349" type="curve"/>
      <point x="545" y="340" type="line"/>
      <point x="644" y="318"/>
      <point x="652" y="251"/>
      <point x="652" y="221" type="curve" smooth="yes"/>
      <point x="652" y="121"/>
      <point x="544" y="54"/>
      <point x="381" y="54" type="curve" smooth="yes"/>
      <point x="234" y="54"/>
      <point x="122" y="122"/>
      <point x="122" y="237" type="curve" smooth="yes"/>
      <point x="122" y="325"/>
      <point x="170" y="369"/>
      <point x="232" y="390" type="curve"/>
      <point x="248" y="383"/>
      <point x="280" y="368"/>
      <point x="305" y="368" type="curve" smooth="yes"/>
      <point x="322" y="368"/>
      <point x="333" y="374"/>
      <point x="333" y="387" type="curve" smooth="yes"/>
      <point x="333" y="401"/>
      <point x="317" y="410"/>
      <point x="293" y="410" type="curve" smooth="yes"/>
      <point x="281" y="410"/>
      <point x="254" y="408"/>
      <point x="231" y="404" type="curve"/>
      <point x="191" y="432"/>
      <point x="180" y="461"/>
      <point x="180" y="504" type="curve" smooth="yes"/>
      <point x="180" y="563"/>
      <point x="228" y="607"/>
      <point x="298" y="607" type="curve" smooth="yes"/>
      <point x="336" y="607"/>
      <point x="366" y="592"/>
      <point x="372" y="575" type="curve"/>
      <point x="341" y="573"/>
      <point x="319" y="549"/>
      <point x="319" y="520" type="curve" smooth="yes"/>
      <point x="319" y="487"/>
      <point x="344" y="470"/>
      <point x="371" y="470" type="curve" smooth="yes"/>
      <point x="399" y="470"/>
      <point x="427" y="490"/>
      <point x="427" y="523" type="curve" smooth="yes"/>
      <point x="427" y="544"/>
      <point x="416" y="571"/>
      <point x="390" y="592" type="curve" smooth="yes"/>
      <point x="369" y="608"/>
      <point x="340" y="622"/>
      <point x="287" y="622" type="curve" smooth="yes"/>
    </contour>
    <contour>
      <point x="613" y="622"/>
      <point x="550" y="607"/>
      <point x="550" y="551" type="curve" smooth="yes"/>
      <point x="550" y="521"/>
      <point x="575" y="503"/>
      <point x="604" y="503" type="curve" smooth="yes"/>
      <point x="632" y="503"/>
      <point x="659" y="524"/>
      <point x="659" y="552" type="curve" smooth="yes"/>
      <point x="659" y="569"/>
      <point x="649" y="589"/>
      <point x="631" y="598" type="curve"/>
      <point x="634" y="604"/>
      <point x="645" y="608"/>
      <point x="658" y="608" type="curve" smooth="yes"/>
      <point x="707" y="608"/>
      <point x="747" y="579"/>
      <point x="747" y="535" type="curve" smooth="yes"/>
      <point x="747" y="506"/>
      <point x="731" y="479"/>
      <point x="671" y="450" type="curve" smooth="yes"/>
      <point x="613" y="421"/>
      <point x="511" y="388"/>
      <point x="467" y="372" type="curve" smooth="yes"/>
      <point x="374" y="339"/>
      <point x="329" y="288"/>
      <point x="329" y="221" type="curve" smooth="yes"/>
      <point x="329" y="160"/>
      <point x="366" y="128"/>
      <point x="424" y="128" type="curve" smooth="yes"/>
      <point x="475" y="128"/>
      <point x="542" y="157"/>
      <point x="542" y="214" type="curve" smooth="yes"/>
      <point x="542" y="246"/>
      <point x="521" y="268"/>
      <point x="489" y="268" type="curve" smooth="yes"/>
      <point x="458" y="268"/>
      <point x="434" y="248"/>
      <point x="434" y="216" type="curve" smooth="yes"/>
      <point x="434" y="182"/>
      <point x="459" y="169"/>
      <point x="481" y="165" type="curve"/>
      <point x="477" y="150"/>
      <point x="446" y="143"/>
      <point x="421" y="143" type="curve" smooth="yes"/>
      <point x="384" y="143"/>
      <point x="350" y="168"/>
      <point x="350" y="211" type="curve" smooth="yes"/>
      <point x="350" y="257"/>
      <point x="397" y="281"/>
      <point x="447" y="300" type="curve" smooth="yes"/>
      <point x="507" y="323"/>
      <point x="631" y="369"/>
      <point x="674" y="387" type="curve" smooth="yes"/>
      <point x="739" y="414"/>
      <point x="773" y="454"/>
      <point x="773" y="515" type="curve" smooth="yes"/>
      <point x="773" y="583"/>
      <point x="724" y="622"/>
      <point x="662" y="622" type="curve" smooth="yes"/>
    </contour>
  </outline>
</glyph>
<glyph name="asciicircum.case" format="1">
  <advance width="442"/>
  <outline>
    <contour>
      <point x="212" y="723" type="line"/>
      <point x="181" y="648"/>
      <point x="112" y="573"/>
      <point x="25" y="531" type="curve"/>
      <point x="33" y="517" type="line"/>
      <point x="97" y="546"/>
      <point x="163" y="593"/>
      <point x="201" y="637" type="curve"/>
      <point x="247" y="593"/>
      <point x="329" y="546"/>
      <point x="409" y="517" type="curve"/>
      <point x="417" y="531" type="line"/>
      <point x="330" y="573"/>
      <point x="261" y="648"/>
      <point x="230" y="723" type="curve"/>
    </contour>
  </outline>
</glyph>
<glyph name="b.smcp" format="1">
  <advance width="603"/>
  <outline>
    <contour>
      <point x="42" y="588" type="line"/>
      <point x="110" y="585"/>
      <point x="123" y="576"/>
      <point x="123" y="502" type="curve" smooth="yes"/>
      <point x="123" y="106" type="line" smooth="yes"/>
      <point x="123" y="33"/>
      <point x="110" y="23"/>
      <point x="42" y="20" type="curve"/>
      <point x="42" y="0" type="line"/>
      <point x="70" y="2"/>
      <point x="119" y="3"/>
      <point x="166" y="3" type="curve" smooth="yes"/>
      <point x="243" y="3"/>
      <point x="300" y="0"/>
      <point x="328" y="0" type="curve" smooth="yes"/>
      <point x="472" y="0"/>
      <point x="558" y="68"/>
      <point x="558" y="164" type="curve" smooth="yes"/>
      <point x="558" y="234"/>
      <point x="514" y="305"/>
      <point x="364" y="324" type="curve"/>
      <point x="364" y="326" type="line"/>
      <point x="469" y="354"/>
      <point x="506" y="411"/>
      <point x="506" y="470" type="curve" smooth="yes"/>
      <point x="506" y="550"/>
      <point x="438" y="607"/>
      <point x="305" y="607" type="curve" smooth="yes"/>
      <point x="283" y="607"/>
      <point x="223" y="605"/>
      <point x="164" y="605" type="curve" smooth="yes"/>
      <point x="120" y="605"/>
      <point x="70" y="606"/>
      <point x="42" y="608" type="curve"/>
    </contour>
    <contour>
      <point x="373" y="588"/>
      <point x="410" y="543"/>
      <point x="410" y="459" type="curve" smooth="yes"/>
      <point x="410" y="384"/>
      <point x="383" y="326"/>
      <point x="273" y="326" type="curve" smooth="yes"/>
      <point x="197" y="326" type="line"/>
      <point x="197" y="326"/>
      <point x="197" y="309"/>
      <point x="197" y="309" type="curve"/>
      <point x="290" y="309" type="line" smooth="yes"/>
      <point x="410" y="309"/>
      <point x="458" y="258"/>
      <point x="458" y="168" type="curve" smooth="yes"/>
      <point x="458" y="74"/>
      <point x="405" y="23"/>
      <point x="281" y="23" type="curve" smooth="yes"/>
      <point x="227" y="23"/>
      <point x="216" y="36"/>
      <point x="216" y="106" type="curve" smooth="yes"/>
      <point x="216" y="502" type="line" smooth="yes"/>
      <point x="216" y="571"/>
      <point x="227" y="588"/>
      <point x="280" y="588" type="curve" smooth="yes"/>
    </contour>
    <contour>
      <point x="283" y="608" type="move" name="top"/>
    </contour>
    <contour>
      <point x="284" y="0" type="move" name="bottom"/>
    </contour>
  </outline>
</glyph>
<glyph name="eight.lf" format="1">
  <advance width="562"/>
  <outline>
    <contour>
      <point x="174" y="722"/>
      <point x="86" y="659"/>
      <point x="86" y="566" type="curve" smooth="yes"/>
      <point x="86" y="370"/>
      <point x="428" y="329"/>
      <point x="428" y="135" type="curve" smooth="yes"/>
      <point x="428" y="50"/>
      <point x="357" y="4"/>
      <point x="280" y="4" type="curve" smooth="yes"/>
      <point x="179" y="4"/>
      <point x="138" y="84"/>
      <point x="138" y="169" type="curve" smooth="yes"/>
      <point x="138" y="245"/>
      <point x="172" y="313"/>
      <point x="255" y="360" type="curve"/>
      <point x="247" y="374" type="line"/>
      <point x="139" y="330"/>
      <point x="50" y="257"/>
      <point x="50" y="154" type="curve" smooth="yes"/>
      <point x="50" y="41"/>
      <point x="158" y="-14"/>
      <point x="274" y="-14" type="curve" smooth="yes"/>
      <point x="411" y="-14"/>
      <point x="513" y="63"/>
      <point x="513" y="177" type="curve" smooth="yes"/>
      <point x="513" y="382"/>
      <point x="164" y="409"/>
      <point x="164" y="597" type="curve" smooth="yes"/>
      <point x="164" y="663"/>
      <point x="213" y="704"/>
      <point x="278" y="704" type="curve" smooth="yes"/>
      <point x="352" y="704"/>
      <point x="394" y="651"/>
      <point x="394" y="572" type="curve" smooth="yes"/>
      <point x="394" y="506"/>
      <point x="368" y="447"/>
      <point x="303" y="404" type="curve"/>
      <point x="311" y="390" type="line"/>
      <point x="407" y="443"/>
      <point x="474" y="504"/>
      <point x="474" y="585" type="curve" smooth="yes"/>
      <point x="474" y="675"/>
      <point x="389" y="722"/>
      <point x="289" y="722" type="curve" smooth="yes"/>
    </contour>
  </outline>
</glyph>
<glyph name="eight.sups" format="1">
  <advance width="367"/>
  <outline>
    <contour>
      <point x="113" y="868"/>
      <point x="54" y="830"/>
      <point x="54" y="775" type="curve" smooth="yes"/>
      <point x="54" y="712"/>
      <point x="122" y="671"/>
      <point x="173" y="640" type="curve" smooth="yes"/>
      <point x="229" y="605"/>
      <point x="277" y="571"/>
      <point x="277" y="516" type="curve" smooth="yes"/>
      <point x="277" y="471"/>
      <point x="233" y="447"/>
      <point x="183" y="447" type="curve" smooth="yes"/>
      <point x="117" y="447"/>
      <point x="92" y="490"/>
      <point x="92" y="536" type="curve" smooth="yes"/>
      <point x="92" y="582"/>
      <point x="113" y="619"/>
      <point x="167" y="647" type="curve"/>
      <point x="161" y="659" type="line"/>
      <point x="90" y="630"/>
      <point x="31" y="594"/>
      <point x="31" y="527" type="curve" smooth="yes"/>
      <point x="31" y="460"/>
      <point x="101" y="427"/>
      <point x="178" y="427" type="curve" smooth="yes"/>
      <point x="270" y="427"/>
      <point x="337" y="473"/>
      <point x="337" y="541" type="curve" smooth="yes"/>
      <point x="337" y="595"/>
      <point x="298" y="627"/>
      <point x="206" y="682" type="curve" smooth="yes"/>
      <point x="164" y="707"/>
      <point x="108" y="737"/>
      <point x="108" y="793" type="curve" smooth="yes"/>
      <point x="108" y="827"/>
      <point x="140" y="847"/>
      <point x="181" y="847" type="curve" smooth="yes"/>
      <point x="229" y="847"/>
      <point x="255" y="820"/>
      <point x="255" y="778" type="curve" smooth="yes"/>
      <point x="255" y="739"/>
      <point x="242" y="704"/>
      <point x="200" y="679" type="curve"/>
      <point x="206" y="667" type="line"/>
      <point x="269" y="702"/>
      <point x="311" y="733"/>
      <point x="311" y="786" type="curve" smooth="yes"/>
      <point x="311" y="840"/>
      <point x="255" y="868"/>
      <point x="189" y="868" type="curve" smooth="yes"/>
    </contour>
  </outline>
</glyph>
<glyph name="f_f_h.liga" format="1">
  <advance width="1226"/>
  <outline>
    <contour>
      <point x="798" y="774"/>
      <point x="764" y="772"/>
      <point x="741" y="772" type="curve" smooth="yes"/>
      <point x="688" y="772"/>
      <point x="657" y="782"/>
      <point x="618" y="782" type="curve" smooth="yes"/>
      <point x="570" y="782"/>
      <point x="526" y="767"/>
      <point x="491" y="736" type="curve" smooth="yes"/>
      <point x="434" y="686"/>
      <point x="427" y="614"/>
      <point x="427" y="514" type="curve"/>
      <point x="347" y="514" type="line"/>
      <point x="347" y="494" type="line"/>
      <point x="427" y="494" type="line"/>
      <point x="427" y="93" type="line" smooth="yes"/>
      <point x="427" y="37"/>
      <point x="406" y="21"/>
      <point x="351" y="21" type="curve"/>
      <point x="351" y="0" type="line"/>
      <point x="374" y="1"/>
      <point x="422" y="4"/>
      <point x="472" y="4" type="curve" smooth="yes"/>
      <point x="522" y="4"/>
      <point x="576" y="1"/>
      <point x="603" y="0" type="curve"/>
      <point x="603" y="21" type="line"/>
      <point x="549" y="21"/>
      <point x="517" y="36"/>
      <point x="517" y="93" type="curve" smooth="yes"/>
      <point x="517" y="494" type="line"/>
      <point x="644" y="494" type="line"/>
      <point x="644" y="514" type="line"/>
      <point x="517" y="514" type="line"/>
      <point x="517" y="608" type="line" smooth="yes"/>
      <point x="517" y="654"/>
      <point x="519" y="707"/>
      <point x="551" y="739" type="curve" smooth="yes"/>
      <point x="566" y="754"/>
      <point x="588" y="767"/>
      <point x="620" y="767" type="curve" smooth="yes"/>
      <point x="646" y="767"/>
      <point x="683" y="758"/>
      <point x="707" y="733" type="curve" smooth="yes"/>
      <point x="723" y="716"/>
      <point x="734" y="693"/>
      <point x="734" y="650" type="curve" smooth="yes"/>
      <point x="734" y="93" type="line" smooth="yes"/>
      <point x="734" y="37"/>
      <point x="713" y="21"/>
      <point x="658" y="21" type="curve"/>
      <point x="658" y="0" type="line"/>
      <point x="681" y="1"/>
      <point x="734" y="4"/>
      <point x="778" y="4" type="curve" smooth="yes"/>
      <point x="822" y="4"/>
      <point x="869" y="1"/>
      <point x="890" y="0" type="curve"/>
      <point x="890" y="21" type="line"/>
      <point x="842" y="21"/>
      <point x="824" y="37"/>
      <point x="824" y="93" type="curve" smooth="yes"/>
      <point x="824" y="316" type="line" smooth="yes"/>
      <point x="824" y="422"/>
      <point x="882" y="497"/>
      <point x="964" y="497" type="curve" smooth="yes"/>
      <point x="1036" y="497"/>
      <point x="1045" y="444"/>
      <point x="1045" y="382" type="curve" smooth="yes"/>
      <point x="1045" y="93" type="line" smooth="yes"/>
      <point x="1045" y="37"/>
      <point x="1027" y="21"/>
      <point x="979" y="21" type="curve"/>
      <point x="979" y="0" type="line"/>
      <point x="1000" y="1"/>
      <point x="1047" y="4"/>
      <point x="1091" y="4" type="curve" smooth="yes"/>
      <point x="1135" y="4"/>
      <point x="1188" y="1"/>
      <point x="1211" y="0" type="curve"/>
      <point x="1211" y="21" type="line"/>
      <point x="1156" y="21"/>
      <point x="1135" y="37"/>
      <point x="1135" y="93" type="curve" smooth="yes"/>
      <point x="1135" y="360" type="line" smooth="yes"/>
      <point x="1135" y="428"/>
      <point x="1125" y="464"/>
      <point x="1100" y="491" type="curve" smooth="yes"/>
      <point x="1077" y="515"/>
      <point x="1045" y="529"/>
      <point x="994" y="529" type="curve" smooth="yes"/>
      <point x="926" y="529"/>
      <point x="859" y="499"/>
      <point x="824" y="409" type="curve"/>
      <point x="824" y="783" type="line"/>
    </contour>
    <contour>
      <point x="245" y="742"/>
      <point x="190" y="716"/>
      <point x="155" y="677" type="curve" smooth="yes"/>
      <point x="124" y="641"/>
      <point x="106" y="588"/>
      <point x="106" y="514" type="curve"/>
      <point x="26" y="514" type="line"/>
      <point x="26" y="494" type="line"/>
      <point x="106" y="494" type="line"/>
      <point x="106" y="93" type="line" smooth="yes"/>
      <point x="106" y="37"/>
      <point x="85" y="21"/>
      <point x="30" y="21" type="curve"/>
      <point x="30" y="0" type="line"/>
      <point x="53" y="1"/>
      <point x="106" y="4"/>
      <point x="152" y="4" type="curve" smooth="yes"/>
      <point x="198" y="4"/>
      <point x="249" y="1"/>
      <point x="272" y="0" type="curve"/>
      <point x="272" y="21" type="line"/>
      <point x="217" y="21"/>
      <point x="196" y="37"/>
      <point x="196" y="93" type="curve" smooth="yes"/>
      <point x="196" y="494" type="line"/>
      <point x="347" y="494" type="line"/>
      <point x="347" y="514" type="line"/>
      <point x="196" y="514" type="line"/>
      <point x="196" y="565" type="line" smooth="yes"/>
      <point x="196" y="677"/>
      <point x="243" y="724"/>
      <point x="325" y="724" type="curve" smooth="yes"/>
      <point x="386" y="724"/>
      <point x="436" y="691"/>
      <point x="462" y="646" type="curve"/>
      <point x="476" y="657" type="line"/>
      <point x="443" y="713"/>
      <point x="389" y="742"/>
      <point x="313" y="742" type="curve" smooth="yes"/>
    </contour>
  </outline>
</glyph>
<glyph name="f_f_j.liga" format="1">
  <advance width="920"/>
  <outline>
    <contour>
      <point x="598" y="782"/>
      <point x="537" y="753"/>
      <point x="499" y="717" type="curve" smooth="yes"/>
      <point x="447" y="668"/>
      <point x="427" y="599"/>
      <point x="427" y="514" type="curve"/>
      <point x="347" y="514" type="line"/>
      <point x="347" y="494" type="line"/>
      <point x="427" y="494" type="line"/>
      <point x="427" y="93" type="line" smooth="yes"/>
      <point x="427" y="37"/>
      <point x="406" y="21"/>
      <point x="351" y="21" type="curve"/>
      <point x="351" y="0" type="line"/>
      <point x="374" y="1"/>
      <point x="423" y="4"/>
      <point x="469" y="4" type="curve" smooth="yes"/>
      <point x="531" y="4"/>
      <point x="592" y="1"/>
      <point x="623" y="0" type="curve"/>
      <point x="623" y="21" type="line"/>
      <point x="557" y="21"/>
      <point x="517" y="38"/>
      <point x="517" y="103" type="curve" smooth="yes"/>
      <point x="517" y="494" type="line"/>
      <point x="678" y="494" type="line" smooth="yes"/>
      <point x="736" y="494"/>
      <point x="754" y="466"/>
      <point x="754" y="406" type="curve" smooth="yes"/>
      <point x="754" y="-65" type="line" smooth="yes"/>
      <point x="754" y="-91"/>
      <point x="752" y="-111"/>
      <point x="746" y="-127" type="curve" smooth="yes"/>
      <point x="741" y="-140"/>
      <point x="733" y="-151"/>
      <point x="723" y="-158" type="curve" smooth="yes"/>
      <point x="712" y="-166"/>
      <point x="697" y="-171"/>
      <point x="679" y="-173" type="curve"/>
      <point x="692" y="-159"/>
      <point x="695" y="-143"/>
      <point x="695" y="-133" type="curve" smooth="yes"/>
      <point x="695" y="-108"/>
      <point x="677" y="-88"/>
      <point x="650" y="-88" type="curve" smooth="yes"/>
      <point x="621" y="-88"/>
      <point x="603" y="-108"/>
      <point x="603" y="-135" type="curve" smooth="yes"/>
      <point x="603" y="-152"/>
      <point x="611" y="-168"/>
      <point x="628" y="-178" type="curve" smooth="yes"/>
      <point x="638" y="-184"/>
      <point x="652" y="-188"/>
      <point x="670" y="-188" type="curve" smooth="yes"/>
      <point x="712" y="-188"/>
      <point x="759" y="-168"/>
      <point x="791" y="-127" type="curve" smooth="yes"/>
      <point x="836" y="-70"/>
      <point x="844" y="23"/>
      <point x="844" y="115" type="curve" smooth="yes"/>
      <point x="844" y="526" type="line"/>
      <point x="800" y="516"/>
      <point x="757" y="514"/>
      <point x="678" y="514" type="curve" smooth="yes"/>
      <point x="517" y="514" type="line"/>
      <point x="517" y="611"/>
      <point x="525" y="656"/>
      <point x="544" y="690" type="curve" smooth="yes"/>
      <point x="570" y="737"/>
      <point x="616" y="767"/>
      <point x="686" y="767" type="curve" smooth="yes"/>
      <point x="712" y="767"/>
      <point x="742" y="763"/>
      <point x="759" y="752" type="curve"/>
      <point x="739" y="741"/>
      <point x="726" y="720"/>
      <point x="726" y="696" type="curve" smooth="yes"/>
      <point x="726" y="661"/>
      <point x="755" y="632"/>
      <point x="790" y="632" type="curve" smooth="yes"/>
      <point x="825" y="632"/>
      <point x="854" y="661"/>
      <point x="854" y="697" type="curve" smooth="yes"/>
      <point x="854" y="721"/>
      <point x="841" y="739"/>
      <point x="820" y="752" type="curve" smooth="yes"/>
      <point x="791" y="770"/>
      <point x="742" y="782"/>
      <point x="686" y="782" type="curve" smooth="yes"/>
    </contour>
    <contour>
      <point x="245" y="742"/>
      <point x="190" y="716"/>
      <point x="155" y="677" type="curve" smooth="yes"/>
      <point x="124" y="641"/>
      <point x="106" y="588"/>
      <point x="106" y="514" type="curve"/>
      <point x="26" y="514" type="line"/>
      <point x="26" y="494" type="line"/>
      <point x="106" y="494" type="line"/>
      <point x="106" y="93" type="line" smooth="yes"/>
      <point x="106" y="37"/>
      <point x="85" y="21"/>
      <point x="30" y="21" type="curve"/>
      <point x="30" y="0" type="line"/>
      <point x="53" y="1"/>
      <point x="106" y="4"/>
      <point x="152" y="4" type="curve" smooth="yes"/>
      <point x="198" y="4"/>
      <point x="249" y="1"/>
      <point x="272" y="0" type="curve"/>
      <point x="272" y="21" type="line"/>
      <point x="217" y="21"/>
      <point x="196" y="37"/>
      <point x="196" y="93" type="curve" smooth="yes"/>
      <point x="196" y="494" type="line"/>
      <point x="347" y="494" type="line"/>
      <point x="347" y="514" type="line"/>
      <point x="196" y="514" type="line"/>
      <point x="196" y="565" type="line" smooth="yes"/>
      <point x="196" y="677"/>
      <point x="243" y="724"/>
      <point x="325" y="724" type="curve" smooth="yes"/>
      <point x="386" y="724"/>
      <point x="436" y="691"/>
      <point x="462" y="646" type="curve"/>
      <point x="476" y="657" type="line"/>
      <point x="443" y="713"/>
      <point x="389" y="742"/>
      <point x="313" y="742" type="curve" smooth="yes"/>
    </contour>
  </outline>
</glyph>
<glyph name="f_f_l" format="1">
  <advance width="942"/>
  <outline>
    <contour>
      <point x="815" y="774"/>
      <point x="779" y="770"/>
      <point x="751" y="770" type="curve" smooth="yes"/>
      <point x="706" y="770"/>
      <point x="667" y="782"/>
      <point x="626" y="782" type="curve" smooth="yes"/>
      <point x="577" y="782"/>
      <point x="528" y="768"/>
      <point x="491" y="736" type="curve" smooth="yes"/>
      <point x="434" y="687"/>
      <point x="427" y="612"/>
      <point x="427" y="514" type="curve"/>
      <point x="347" y="514" type="line"/>
      <point x="347" y="494" type="line"/>
      <point x="427" y="494" type="line"/>
      <point x="427" y="93" type="line" smooth="yes"/>
      <point x="427" y="37"/>
      <point x="406" y="21"/>
      <point x="351" y="21" type="curve"/>
      <point x="351" y="0" type="line"/>
      <point x="374" y="1"/>
      <point x="422" y="4"/>
      <point x="472" y="4" type="curve" smooth="yes"/>
      <point x="522" y="4"/>
      <point x="576" y="1"/>
      <point x="603" y="0" type="curve"/>
      <point x="603" y="21" type="line"/>
      <point x="549" y="21"/>
      <point x="517" y="36"/>
      <point x="517" y="93" type="curve" smooth="yes"/>
      <point x="517" y="494" type="line"/>
      <point x="644" y="494" type="line"/>
      <point x="644" y="514" type="line"/>
      <point x="517" y="514" type="line"/>
      <point x="517" y="608" type="line" smooth="yes"/>
      <point x="517" y="658"/>
      <point x="521" y="705"/>
      <point x="552" y="736" type="curve" smooth="yes"/>
      <point x="567" y="752"/>
      <point x="592" y="767"/>
      <point x="631" y="767" type="curve" smooth="yes"/>
      <point x="659" y="767"/>
      <point x="701" y="759"/>
      <point x="727" y="733" type="curve" smooth="yes"/>
      <point x="744" y="716"/>
      <point x="754" y="693"/>
      <point x="754" y="650" type="curve" smooth="yes"/>
      <point x="754" y="93" type="line" smooth="yes"/>
      <point x="754" y="37"/>
      <point x="733" y="21"/>
      <point x="678" y="21" type="curve"/>
      <point x="678" y="0" type="line"/>
      <point x="701" y="1"/>
      <point x="753" y="4"/>
      <point x="799" y="4" type="curve" smooth="yes"/>
      <point x="845" y="4"/>
      <point x="897" y="1"/>
      <point x="920" y="0" type="curve"/>
      <point x="920" y="21" type="line"/>
      <point x="865" y="21"/>
      <point x="844" y="37"/>
      <point x="844" y="93" type="curve" smooth="yes"/>
      <point x="844" y="784" type="line"/>
    </contour>
    <contour>
      <point x="245" y="742"/>
      <point x="190" y="716"/>
      <point x="155" y="677" type="curve" smooth="yes"/>
      <point x="124" y="641"/>
      <point x="106" y="588"/>
      <point x="106" y="514" type="curve"/>
      <point x="26" y="514" type="line"/>
      <point x="26" y="494" type="line"/>
      <point x="106" y="494" type="line"/>
      <point x="106" y="93" type="line" smooth="yes"/>
      <point x="106" y="37"/>
      <point x="85" y="21"/>
      <point x="30" y="21" type="curve"/>
      <point x="30" y="0" type="line"/>
      <point x="53" y="1"/>
      <point x="106" y="4"/>
      <point x="152" y="4" type="curve" smooth="yes"/>
      <point x="198" y="4"/>
      <point x="249" y="1"/>
      <point x="272" y="0" type="curve"/>
      <point x="272" y="21" type="line"/>
      <point x="217" y="21"/>
      <point x="196" y="37"/>
      <point x="196" y="93" type="curve" smooth="yes"/>
      <point x="196" y="494" type="line"/>
      <point x="347" y="494" type="line"/>
      <point x="347" y="514" type="line"/>
      <point x="196" y="514" type="line"/>
      <point x="196" y="565" type="line" smooth="yes"/>
      <point x="196" y="677"/>
      <point x="243" y="724"/>
      <point x="325" y="724" type="curve" smooth="yes"/>
      <point x="386" y="724"/>
      <point x="436" y="691"/>
      <point x="462" y="646" type="curve"/>
      <point x="476" y="657" type="line"/>
      <point x="443" y="713"/>
      <point x="389" y="742"/>
      <point x="313" y="742" type="curve" smooth="yes"/>
    </contour>
  </outline>
</glyph>
<glyph name="four.lf" format="1">
  <advance width="539"/>
  <outline>
    <contour>
      <point x="17" y="205" type="line"/>
      <point x="17" y="185" type="line"/>
      <point x="508" y="185" type="line"/>
      <point x="508" y="252" type="line"/>
      <point x="67" y="252" type="line"/>
      <point x="39" y="204" type="line"/>
      <point x="364" y="690" type="line"/>
      <point x="366" y="722" type="line"/>
    </contour>
    <contour>
      <point x="366" y="722" type="line"/>
      <point x="292" y="591" type="line"/>
      <point x="292" y="106" type="line" smooth="yes"/>
      <point x="292" y="33"/>
      <point x="275" y="23"/>
      <point x="191" y="20" type="curve"/>
      <point x="191" y="0" type="line"/>
      <point x="226" y="2"/>
      <point x="281" y="3"/>
      <point x="335" y="3" type="curve" smooth="yes"/>
      <point x="387" y="3"/>
      <point x="435" y="2"/>
      <point x="463" y="0" type="curve"/>
      <point x="463" y="20" type="line"/>
      <point x="395" y="23"/>
      <point x="382" y="33"/>
      <point x="382" y="106" type="curve" smooth="yes"/>
      <point x="382" y="722" type="line"/>
    </contour>
  </outline>
</glyph>
<glyph name="hacek.case" format="1">
  <advance width="161"/>
  <outline>
    <contour>
      <point x="113" y="707"/>
      <point x="86" y="703"/>
      <point x="35" y="708" type="curve"/>
      <point x="35" y="687" type="line"/>
      <point x="60" y="687"/>
      <point x="65" y="673"/>
      <point x="65" y="647" type="curve" smooth="yes"/>
      <point x="65" y="627"/>
      <point x="61" y="584"/>
      <point x="45" y="482" type="curve"/>
      <point x="59" y="478" type="line"/>
      <point x="112" y="574"/>
      <point x="146" y="635"/>
      <point x="146" y="678" type="curve" smooth="yes"/>
      <point x="146" y="690"/>
      <point x="144" y="707"/>
      <point x="141" y="714" type="curve"/>
    </contour>
    <contour>
      <point x="0" y="708" type="move" name="_right"/>
    </contour>
  </outline>
</glyph>
<glyph name="n.smcp" format="1">
  <advance width="685"/>
  <outline>
    <contour>
      <point x="628" y="606"/>
      <point x="591" y="605"/>
      <point x="557" y="605" type="curve" smooth="yes"/>
      <point x="523" y="605"/>
      <point x="479" y="606"/>
      <point x="455" y="608" type="curve"/>
      <point x="455" y="588" type="line"/>
      <point x="533" y="585"/>
      <point x="546" y="565"/>
      <point x="546" y="492" type="curve" smooth="yes"/>
      <point x="546" y="164" type="line"/>
      <point x="227" y="608" type="line"/>
      <point x="202" y="606"/>
      <point x="168" y="605"/>
      <point x="135" y="605" type="curve" smooth="yes"/>
      <point x="101" y="605"/>
      <point x="64" y="606"/>
      <point x="42" y="608" type="curve"/>
      <point x="42" y="588" type="line"/>
      <point x="110" y="585"/>
      <point x="123" y="575"/>
      <point x="123" y="502" type="curve" smooth="yes"/>
      <point x="123" y="116" type="line" smooth="yes"/>
      <point x="123" y="43"/>
      <point x="110" y="23"/>
      <point x="42" y="20" type="curve"/>
      <point x="42" y="0" type="line"/>
      <point x="64" y="2"/>
      <point x="101" y="3"/>
      <point x="135" y="3" type="curve" smooth="yes"/>
      <point x="169" y="3"/>
      <point x="213" y="2"/>
      <point x="237" y="0" type="curve"/>
      <point x="237" y="20" type="line"/>
      <point x="159" y="23"/>
      <point x="146" y="43"/>
      <point x="146" y="116" type="curve" smooth="yes"/>
      <point x="146" y="549" type="line"/>
      <point x="546" y="-5" type="line"/>
      <point x="554" y="-5"/>
      <point x="561" y="-5"/>
      <point x="569" y="-5" type="curve"/>
      <point x="569" y="492" type="line" smooth="yes"/>
      <point x="569" y="565"/>
      <point x="582" y="585"/>
      <point x="650" y="588" type="curve"/>
      <point x="650" y="608" type="line"/>
    </contour>
    <contour>
      <point x="349" y="608" type="move" name="top"/>
    </contour>
    <contour>
      <point x="350" y="0" type="move" name="bottom"/>
    </contour>
  </outline>
</glyph>
<glyph name="nine.sups" format="1">
  <advance width="385"/>
  <outline>
    <contour>
      <point x="103" y="755"/>
      <point x="26" y="705"/>
      <point x="26" y="615" type="curve" smooth="yes"/>
      <point x="26" y="531"/>
      <point x="94" y="484"/>
      <point x="166" y="484" type="curve" smooth="yes"/>
      <point x="213" y="484"/>
      <point x="283" y="506"/>
      <point x="294" y="581" type="curve"/>
      <point x="287" y="584" type="line"/>
      <point x="271" y="528"/>
      <point x="218" y="512"/>
      <point x="183" y="512" type="curve" smooth="yes"/>
      <point x="135" y="512"/>
      <point x="94" y="540"/>
      <point x="94" y="619" type="curve" smooth="yes"/>
      <point x="94" y="702"/>
      <point x="139" y="733"/>
      <point x="187" y="733" type="curve" smooth="yes"/>
      <point x="232" y="733"/>
      <point x="283" y="705"/>
      <point x="283" y="596" type="curve" smooth="yes"/>
      <point x="283" y="428"/>
      <point x="171" y="384"/>
      <point x="83" y="366" type="curve"/>
      <point x="85" y="349" type="line"/>
      <point x="191" y="362"/>
      <point x="351" y="433"/>
      <point x="351" y="597" type="curve" smooth="yes"/>
      <point x="351" y="698"/>
      <point x="291" y="755"/>
      <point x="194" y="755" type="curve" smooth="yes"/>
    </contour>
  </outline>
</glyph>
<glyph name="p.smcp" format="1">
  <advance width="566"/>
  <outline>
    <contour>
      <point x="42" y="588" type="line"/>
      <point x="110" y="585"/>
      <point x="123" y="575"/>
      <point x="123" y="502" type="curve" smooth="yes"/>
      <point x="123" y="106" type="line" smooth="yes"/>
      <point x="123" y="33"/>
      <point x="110" y="23"/>
      <point x="42" y="20" type="curve"/>
      <point x="42" y="0" type="line"/>
      <point x="70" y="2"/>
      <point x="118" y="3"/>
      <point x="170" y="3" type="curve" smooth="yes"/>
      <point x="216" y="3"/>
      <point x="266" y="2"/>
      <point x="297" y="0" type="curve"/>
      <point x="297" y="20" type="line"/>
      <point x="229" y="23"/>
      <point x="216" y="33"/>
      <point x="216" y="106" type="curve" smooth="yes"/>
      <point x="216" y="502" type="line" smooth="yes"/>
      <point x="216" y="571"/>
      <point x="229" y="588"/>
      <point x="290" y="588" type="curve" smooth="yes"/>
      <point x="397" y="588"/>
      <point x="436" y="534"/>
      <point x="436" y="429" type="curve" smooth="yes"/>
      <point x="436" y="342"/>
      <point x="407" y="266"/>
      <point x="273" y="266" type="curve" smooth="yes"/>
      <point x="197" y="266" type="line"/>
      <point x="197" y="266"/>
      <point x="197" y="246"/>
      <point x="197" y="246" type="curve"/>
      <point x="283" y="246" type="line" smooth="yes"/>
      <point x="482" y="246"/>
      <point x="536" y="355"/>
      <point x="536" y="440" type="curve" smooth="yes"/>
      <point x="536" y="538"/>
      <point x="462" y="607"/>
      <point x="315" y="607" type="curve" smooth="yes"/>
      <point x="291" y="607"/>
      <point x="227" y="605"/>
      <point x="164" y="605" type="curve" smooth="yes"/>
      <point x="120" y="605"/>
      <point x="70" y="606"/>
      <point x="42" y="608" type="curve"/>
    </contour>
    <contour>
      <point x="300" y="608" type="move" name="top"/>
    </contour>
    <contour>
      <point x="170" y="0" type="move" name="bottom"/>
    </contour>
  </outline>
</glyph>
<glyph name="paragraph.smcp" format="1">
  <advance width="643"/>
  <outline>
    <contour>
      <point x="165" y="609"/>
      <point x="33" y="484"/>
      <point x="33" y="310" type="curve" smooth="yes"/>
      <point x="33" y="133"/>
      <point x="137" y="0"/>
      <point x="432" y="0" type="curve"/>
      <point x="432" y="-65" type="line" smooth="yes"/>
      <point x="432" y="-136"/>
      <point x="415" y="-158"/>
      <point x="331" y="-161" type="curve"/>
      <point x="331" y="-181" type="line"/>
      <point x="363" y="-179"/>
      <point x="419" y="-178"/>
      <point x="479" y="-178" type="curve" smooth="yes"/>
      <point x="525" y="-178"/>
      <point x="575" y="-179"/>
      <point x="606" y="-181" type="curve"/>
      <point x="606" y="-161" type="line"/>
      <point x="538" y="-158"/>
      <point x="525" y="-148"/>
      <point x="525" y="-75" type="curve" smooth="yes"/>
      <point x="525" y="521" type="line" smooth="yes"/>
      <point x="525" y="565"/>
      <point x="537" y="586"/>
      <point x="602" y="589" type="curve"/>
      <point x="602" y="608" type="line"/>
      <point x="536" y="602"/>
      <point x="469" y="609"/>
      <point x="391" y="609" type="curve" smooth="yes"/>
    </contour>
    <contour>
      <point x="433" y="552"/>
      <point x="433" y="28"/>
      <point x="433" y="28" type="curve"/>
      <point x="427" y="28"/>
      <point x="404" y="138"/>
      <point x="402" y="277" type="curve"/>
      <point x="248" y="277"/>
      <point x="122" y="287"/>
      <point x="122" y="291" type="curve"/>
      <point x="122" y="295"/>
      <point x="248" y="306"/>
      <point x="402" y="306" type="curve" smooth="yes"/>
      <point x="404" y="443"/>
      <point x="427" y="556"/>
      <point x="433" y="556" type="curve"/>
    </contour>
  </outline>
</glyph>
<glyph name="q.smcp" format="1">
  <advance width="722"/>
  <outline>
    <contour>
      <point x="314" y="-4"/>
      <point x="282" y="-38"/>
      <point x="211" y="-57" type="curve"/>
      <point x="186" y="-52"/>
      <point x="158" y="-49"/>
      <point x="136" y="-49" type="curve" smooth="yes"/>
      <point x="99" y="-49"/>
      <point x="82" y="-57"/>
      <point x="82" y="-70" type="curve" smooth="yes"/>
      <point x="82" y="-84"/>
      <point x="101" y="-90"/>
      <point x="128" y="-90" type="curve" smooth="yes"/>
      <point x="154" y="-90"/>
      <point x="185" y="-84"/>
      <point x="211" y="-75" type="curve"/>
      <point x="327" y="-105"/>
      <point x="461" y="-188"/>
      <point x="587" y="-188" type="curve" smooth="yes"/>
      <point x="702" y="-188"/>
      <point x="767" y="-133"/>
      <point x="795" y="-29" type="curve"/>
      <point x="780" y="-23" type="line"/>
      <point x="746" y="-83"/>
      <point x="689" y="-110"/>
      <point x="583" y="-110" type="curve" smooth="yes"/>
      <point x="542" y="-110"/>
      <point x="484" y="-103"/>
      <point x="422" y="-93" type="curve" smooth="yes"/>
      <point x="362" y="-84"/>
      <point x="299" y="-72"/>
      <point x="246" y="-62" type="curve"/>
      <point x="305" y="-45"/>
      <point x="334" y="-20"/>
      <point x="394" y="-13" type="curve"/>
      <point x="393" y="3" type="line"/>
    </contour>
    <component base="o.smcp" xOffset="1"/>
  </outline>
</glyph>
<glyph name="s_t" format="1">
  <advance width="821"/>
  <outline>
    <contour>
      <point x="609" y="672"/>
      <point x="577" y="668"/>
      <point x="544" y="667" type="curve"/>
      <point x="544" y="514" type="line"/>
      <point x="448" y="514" type="line"/>
      <point x="448" y="494" type="line"/>
      <point x="544" y="494" type="line"/>
      <point x="544" y="159" type="line" smooth="yes"/>
      <point x="544" y="88"/>
      <point x="553" y="48"/>
      <point x="582" y="18" type="curve" smooth="yes"/>
      <point x="604" y="-4"/>
      <point x="631" y="-14"/>
      <point x="678" y="-14" type="curve" smooth="yes"/>
      <point x="759" y="-14"/>
      <point x="797" y="44"/>
      <point x="813" y="122" type="curve"/>
      <point x="793" y="128" type="line"/>
      <point x="769" y="50"/>
      <point x="738" y="22"/>
      <point x="698" y="22" type="curve" smooth="yes"/>
      <point x="660" y="22"/>
      <point x="634" y="45"/>
      <point x="634" y="111" type="curve" smooth="yes"/>
      <point x="634" y="494" type="line"/>
      <point x="792" y="494" type="line"/>
      <point x="792" y="514" type="line"/>
      <point x="634" y="514" type="line"/>
      <point x="634" y="681" type="line"/>
    </contour>
    <contour>
      <point x="137" y="529"/>
      <point x="59" y="489"/>
      <point x="59" y="399" type="curve" smooth="yes"/>
      <point x="59" y="317"/>
      <point x="124" y="278"/>
      <point x="197" y="232" type="curve" smooth="yes"/>
      <point x="265" y="189"/>
      <point x="310" y="160"/>
      <point x="310" y="97" type="curve" smooth="yes"/>
      <point x="310" y="39"/>
      <point x="272" y="6"/>
      <point x="214" y="6" type="curve" smooth="yes"/>
      <point x="121" y="6"/>
      <point x="93" y="91"/>
      <point x="82" y="193" type="curve"/>
      <point x="59" y="193" type="line"/>
      <point x="59" y="92"/>
      <point x="58" y="36"/>
      <point x="55" y="-7" type="curve"/>
      <point x="78" y="-7" type="line"/>
      <point x="83" y="25"/>
      <point x="94" y="38"/>
      <point x="108" y="27" type="curve" smooth="yes"/>
      <point x="122" y="16"/>
      <point x="134" y="7"/>
      <point x="149" y="0" type="curve" smooth="yes"/>
      <point x="169" y="-9"/>
      <point x="198" y="-14"/>
      <point x="228" y="-14" type="curve" smooth="yes"/>
      <point x="319" y="-14"/>
      <point x="399" y="34"/>
      <point x="399" y="126" type="curve" smooth="yes"/>
      <point x="399" y="209"/>
      <point x="334" y="255"/>
      <point x="262" y="301" type="curve" smooth="yes"/>
      <point x="192" y="346"/>
      <point x="134" y="374"/>
      <point x="134" y="433" type="curve" smooth="yes"/>
      <point x="134" y="483"/>
      <point x="175" y="510"/>
      <point x="230" y="510" type="curve" smooth="yes"/>
      <point x="277" y="510"/>
      <point x="319" y="491"/>
      <point x="338" y="468" type="curve"/>
      <point x="315" y="441"/>
      <point x="304" y="411"/>
      <point x="304" y="389" type="curve" smooth="yes"/>
      <point x="304" y="363"/>
      <point x="319" y="339"/>
      <point x="349" y="339" type="curve" smooth="yes"/>
      <point x="375" y="339"/>
      <point x="395" y="358"/>
      <point x="395" y="393" type="curve" smooth="yes"/>
      <point x="395" y="423"/>
      <point x="381" y="461"/>
      <point x="355" y="480" type="curve"/>
      <point x="323" y="513"/>
      <point x="270" y="529"/>
      <point x="218" y="529" type="curve" smooth="yes"/>
    </contour>
    <contour>
      <point x="360" y="782"/>
      <point x="296" y="745"/>
      <point x="296" y="663" type="curve" smooth="yes"/>
      <point x="296" y="583"/>
      <point x="363" y="554"/>
      <point x="342" y="463" type="curve"/>
      <point x="359" y="470" type="line"/>
      <point x="382" y="545"/>
      <point x="319" y="589"/>
      <point x="319" y="664" type="curve" smooth="yes"/>
      <point x="319" y="737"/>
      <point x="371" y="764"/>
      <point x="428" y="764" type="curve" smooth="yes"/>
      <point x="503" y="764"/>
      <point x="544" y="715"/>
      <point x="544" y="631" type="curve"/>
      <point x="561" y="634" type="line"/>
      <point x="561" y="741"/>
      <point x="503" y="782"/>
      <point x="430" y="782" type="curve" smooth="yes"/>
    </contour>
  </outline>
</glyph>
<glyph name="seven.sups" format="1">
  <advance width="313"/>
  <outline>
    <contour>
      <point x="29" y="721"/>
      <point x="25" y="693"/>
      <point x="16" y="658" type="curve"/>
      <point x="33" y="655" type="line"/>
      <point x="42" y="677"/>
      <point x="48" y="689"/>
      <point x="80" y="689" type="curve" smooth="yes"/>
      <point x="272" y="689" type="line"/>
      <point x="292" y="731" type="line"/>
      <point x="230" y="627"/>
      <point x="105" y="515"/>
      <point x="105" y="380" type="curve" smooth="yes"/>
      <point x="105" y="362"/>
      <point x="115" y="346"/>
      <point x="137" y="346" type="curve" smooth="yes"/>
      <point x="156" y="346"/>
      <point x="170" y="359"/>
      <point x="170" y="377" type="curve" smooth="yes"/>
      <point x="170" y="389"/>
      <point x="167" y="405"/>
      <point x="167" y="424" type="curve" smooth="yes"/>
      <point x="165" y="558"/>
      <point x="261" y="642"/>
      <point x="305" y="721" type="curve"/>
      <point x="305" y="743" type="line"/>
      <point x="68" y="743" type="line" smooth="yes"/>
      <point x="55" y="743"/>
      <point x="42" y="743"/>
      <point x="30" y="746" type="curve"/>
    </contour>
  </outline>
</glyph>
<glyph name="six.lf" format="1">
  <advance width="559"/>
  <outline>
    <contour>
      <point x="166" y="722"/>
      <point x="57" y="567"/>
      <point x="57" y="318" type="curve" smooth="yes"/>
      <point x="57" y="102"/>
      <point x="139" y="-14"/>
      <point x="286" y="-14" type="curve" smooth="yes"/>
      <point x="409" y="-14"/>
      <point x="511" y="67"/>
      <point x="511" y="225" type="curve" smooth="yes"/>
      <point x="511" y="375"/>
      <point x="419" y="448"/>
      <point x="319" y="448" type="curve" smooth="yes"/>
      <point x="232" y="448"/>
      <point x="156" y="393"/>
      <point x="142" y="233" type="curve"/>
      <point x="154" y="229" type="line"/>
      <point x="176" y="396"/>
      <point x="255" y="428"/>
      <point x="302" y="428" type="curve" smooth="yes"/>
      <point x="367" y="428"/>
      <point x="414" y="368"/>
      <point x="414" y="223" type="curve" smooth="yes"/>
      <point x="414" y="64"/>
      <point x="358" y="6"/>
      <point x="290" y="6" type="curve" smooth="yes"/>
      <point x="222" y="6"/>
      <point x="154" y="65"/>
      <point x="154" y="334" type="curve" smooth="yes"/>
      <point x="154" y="630"/>
      <point x="236" y="705"/>
      <point x="324" y="705" type="curve" smooth="yes"/>
      <point x="351" y="705"/>
      <point x="393" y="698"/>
      <point x="409" y="680" type="curve"/>
      <point x="384" y="669"/>
      <point x="368" y="648"/>
      <point x="368" y="624" type="curve" smooth="yes"/>
      <point x="368" y="594"/>
      <point x="393" y="573"/>
      <point x="422" y="573" type="curve" smooth="yes"/>
      <point x="453" y="573"/>
      <point x="477" y="597"/>
      <point x="477" y="627" type="curve" smooth="yes"/>
      <point x="477" y="661"/>
      <point x="447" y="687"/>
      <point x="420" y="701" type="curve" smooth="yes"/>
      <point x="395" y="714"/>
      <point x="361" y="722"/>
      <point x="325" y="722" type="curve" smooth="yes"/>
    </contour>
  </outline>
</glyph>
<glyph name="six.numr" format="1">
  <advance width="382"/>
  <outline>
    <contour>
      <point x="192" y="856"/>
      <point x="33" y="781"/>
      <point x="33" y="600" type="curve" smooth="yes"/>
      <point x="33" y="492"/>
      <point x="92" y="430"/>
      <point x="190" y="430" type="curve" smooth="yes"/>
      <point x="281" y="430"/>
      <point x="358" y="480"/>
      <point x="358" y="570" type="curve" smooth="yes"/>
      <point x="358" y="654"/>
      <point x="290" y="701"/>
      <point x="218" y="701" type="curve" smooth="yes"/>
      <point x="171" y="701"/>
      <point x="101" y="679"/>
      <point x="89" y="604" type="curve"/>
      <point x="96" y="601" type="line"/>
      <point x="113" y="657"/>
      <point x="165" y="673"/>
      <point x="200" y="673" type="curve" smooth="yes"/>
      <point x="248" y="673"/>
      <point x="290" y="645"/>
      <point x="290" y="566" type="curve" smooth="yes"/>
      <point x="290" y="483"/>
      <point x="245" y="452"/>
      <point x="197" y="452" type="curve" smooth="yes"/>
      <point x="151" y="452"/>
      <point x="101" y="483"/>
      <point x="101" y="601" type="curve" smooth="yes"/>
      <point x="101" y="786"/>
      <point x="213" y="835"/>
      <point x="301" y="855" type="curve"/>
      <point x="298" y="872" type="line"/>
    </contour>
  </outline>
</glyph>
<glyph name="t.smcp" format="1">
  <advance width="631"/>
  <outline>
    <contour>
      <point x="514" y="605"/>
      <point x="398" y="605"/>
      <point x="316" y="605" type="curve" smooth="yes"/>
      <point x="234" y="605"/>
      <point x="117" y="605"/>
      <point x="34" y="608" type="curve"/>
      <point x="39" y="561"/>
      <point x="41" y="513"/>
      <point x="41" y="490" type="curve" smooth="yes"/>
      <point x="41" y="458"/>
      <point x="40" y="429"/>
      <point x="38" y="408" type="curve"/>
      <point x="61" y="408" type="line"/>
      <point x="72" y="540"/>
      <point x="97" y="585"/>
      <point x="205" y="585" type="curve" smooth="yes"/>
      <point x="269" y="585" type="line"/>
      <point x="269" y="116" type="line" smooth="yes"/>
      <point x="269" y="35"/>
      <point x="252" y="23"/>
      <point x="168" y="20" type="curve"/>
      <point x="168" y="0" type="line"/>
      <point x="200" y="2"/>
      <point x="256" y="3"/>
      <point x="316" y="3" type="curve" smooth="yes"/>
      <point x="370" y="3"/>
      <point x="428" y="2"/>
      <point x="463" y="0" type="curve"/>
      <point x="463" y="20" type="line"/>
      <point x="379" y="23"/>
      <point x="362" y="35"/>
      <point x="362" y="116" type="curve" smooth="yes"/>
      <point x="362" y="585" type="line"/>
      <point x="426" y="585" type="line" smooth="yes"/>
      <point x="534" y="585"/>
      <point x="559" y="540"/>
      <point x="570" y="408" type="curve"/>
      <point x="593" y="408" type="line"/>
      <point x="591" y="428"/>
      <point x="590" y="458"/>
      <point x="590" y="490" type="curve" smooth="yes"/>
      <point x="590" y="513"/>
      <point x="592" y="561"/>
      <point x="597" y="608" type="curve"/>
    </contour>
    <contour>
      <point x="316" y="257" type="move" name="center"/>
    </contour>
    <contour>
      <point x="316" y="0" type="move" name="bottom"/>
    </contour>
    <contour>
      <point x="316" y="608" type="move" name="top"/>
    </contour>
  </outline>
</glyph>
<glyph name="three.lf" format="1">
  <advance width="535"/>
  <outline>
    <contour>
      <point x="205" y="722"/>
      <point x="139" y="702"/>
      <point x="99" y="658" type="curve" smooth="yes"/>
      <point x="76" y="633"/>
      <point x="64" y="603"/>
      <point x="64" y="581" type="curve" smooth="yes"/>
      <point x="64" y="554"/>
      <point x="82" y="527"/>
      <point x="117" y="527" type="curve" smooth="yes"/>
      <point x="148" y="527"/>
      <point x="172" y="548"/>
      <point x="172" y="579" type="curve" smooth="yes"/>
      <point x="172" y="611"/>
      <point x="145" y="627"/>
      <point x="114" y="632" type="curve"/>
      <point x="134" y="677"/>
      <point x="188" y="699"/>
      <point x="236" y="699" type="curve" smooth="yes"/>
      <point x="311" y="699"/>
      <point x="349" y="643"/>
      <point x="349" y="551" type="curve" smooth="yes"/>
      <point x="349" y="470"/>
      <point x="316" y="399"/>
      <point x="234" y="382" type="curve"/>
      <point x="220" y="384"/>
      <point x="209" y="388"/>
      <point x="197" y="388" type="curve" smooth="yes"/>
      <point x="182" y="388"/>
      <point x="174" y="380"/>
      <point x="174" y="372" type="curve" smooth="yes"/>
      <point x="174" y="364"/>
      <point x="181" y="356"/>
      <point x="195" y="356" type="curve" smooth="yes"/>
      <point x="206" y="356"/>
      <point x="215" y="361"/>
      <point x="236" y="369" type="curve"/>
      <point x="328" y="361"/>
      <point x="389" y="297"/>
      <point x="389" y="186" type="curve" smooth="yes"/>
      <point x="389" y="85"/>
      <point x="333" y="3"/>
      <point x="222" y="3" type="curve" smooth="yes"/>
      <point x="171" y="3"/>
      <point x="122" y="21"/>
      <point x="110" y="41" type="curve"/>
      <point x="135" y="46"/>
      <point x="152" y="64"/>
      <point x="152" y="92" type="curve" smooth="yes"/>
      <point x="152" y="126"/>
      <point x="127" y="146"/>
      <point x="98" y="146" type="curve" smooth="yes"/>
      <point x="66" y="146"/>
      <point x="44" y="124"/>
      <point x="44" y="93" type="curve" smooth="yes"/>
      <point x="44" y="65"/>
      <point x="63" y="40"/>
      <point x="91" y="21" type="curve" smooth="yes"/>
      <point x="115" y="5"/>
      <point x="157" y="-14"/>
      <point x="223" y="-14" type="curve" smooth="yes"/>
      <point x="367" y="-14"/>
      <point x="484" y="62"/>
      <point x="484" y="192" type="curve" smooth="yes"/>
      <point x="484" y="315"/>
      <point x="375" y="373"/>
      <point x="261" y="378" type="curve"/>
      <point x="347" y="402"/>
      <point x="446" y="471"/>
      <point x="446" y="572" type="curve" smooth="yes"/>
      <point x="446" y="664"/>
      <point x="374" y="722"/>
      <point x="269" y="722" type="curve" smooth="yes"/>
    </contour>
  </outline>
</glyph>
<glyph name="three.numr" format="1">
  <advance width="324"/>
  <outline>
    <contour>
      <point x="94" y="756"/>
      <point x="50" y="717"/>
      <point x="28" y="676" type="curve"/>
      <point x="43" y="668" type="line"/>
      <point x="65" y="704"/>
      <point x="99" y="722"/>
      <point x="138" y="722" type="curve" smooth="yes"/>
      <point x="179" y="722"/>
      <point x="206" y="699"/>
      <point x="206" y="664" type="curve" smooth="yes"/>
      <point x="206" y="642"/>
      <point x="195" y="609"/>
      <point x="150" y="590" type="curve"/>
      <point x="126" y="591"/>
      <point x="106" y="590"/>
      <point x="106" y="576" type="curve" smooth="yes"/>
      <point x="106" y="569"/>
      <point x="111" y="564"/>
      <point x="122" y="564" type="curve" smooth="yes"/>
      <point x="133" y="564"/>
      <point x="143" y="571"/>
      <point x="158" y="578" type="curve"/>
      <point x="202" y="576"/>
      <point x="231" y="545"/>
      <point x="231" y="499" type="curve" smooth="yes"/>
      <point x="231" y="426"/>
      <point x="135" y="368"/>
      <point x="32" y="365" type="curve"/>
      <point x="32" y="348" type="line"/>
      <point x="153" y="348"/>
      <point x="292" y="406"/>
      <point x="292" y="499" type="curve" smooth="yes"/>
      <point x="292" y="557"/>
      <point x="237" y="588"/>
      <point x="176" y="589" type="curve"/>
      <point x="229" y="604"/>
      <point x="269" y="637"/>
      <point x="269" y="683" type="curve" smooth="yes"/>
      <point x="269" y="730"/>
      <point x="228" y="756"/>
      <point x="168" y="756" type="curve" smooth="yes"/>
    </contour>
  </outline>
</glyph>
<glyph name="uni0434.smcp" format="1">
  <advance width="611"/>
  <outline>
    <contour>
      <point x="531" y="606"/>
      <point x="479" y="605"/>
      <point x="440" y="605" type="curve" smooth="yes"/>
      <point x="383" y="605"/>
      <point x="348" y="608"/>
      <point x="297" y="608" type="curve" smooth="yes"/>
      <point x="274" y="608"/>
      <point x="253" y="605"/>
      <point x="229" y="605" type="curve" smooth="yes"/>
      <point x="197" y="605"/>
      <point x="154" y="606"/>
      <point x="126" y="608" type="curve"/>
      <point x="126" y="588" type="line"/>
      <point x="198" y="585"/>
      <point x="212" y="572"/>
      <point x="207" y="502" type="curve" smooth="yes"/>
      <point x="191" y="285"/>
      <point x="175" y="20"/>
      <point x="21" y="20" type="curve"/>
      <point x="21" y="1" type="line"/>
      <point x="213" y="1"/>
      <point x="209" y="315"/>
      <point x="230" y="502" type="curve"/>
      <point x="236" y="573"/>
      <point x="239" y="588"/>
      <point x="301" y="588" type="curve" smooth="yes"/>
      <point x="314" y="588" type="line" smooth="yes"/>
      <point x="374" y="588"/>
      <point x="385" y="576"/>
      <point x="385" y="502" type="curve" smooth="yes"/>
      <point x="385" y="106" type="line" smooth="yes"/>
      <point x="385" y="33"/>
      <point x="372" y="20"/>
      <point x="304" y="20" type="curve" smooth="yes"/>
      <point x="3" y="20" type="line"/>
      <point x="8" y="-27"/>
      <point x="10" y="-75"/>
      <point x="10" y="-98" type="curve" smooth="yes"/>
      <point x="10" y="-122"/>
      <point x="9" y="-145"/>
      <point x="7" y="-160" type="curve"/>
      <point x="30" y="-160" type="line"/>
      <point x="43" y="-42"/>
      <point x="58" y="0"/>
      <point x="164" y="0" type="curve" smooth="yes"/>
      <point x="429" y="0" type="line" smooth="yes"/>
      <point x="535" y="0"/>
      <point x="550" y="-42"/>
      <point x="563" y="-160" type="curve"/>
      <point x="586" y="-160" type="line"/>
      <point x="584" y="-145"/>
      <point x="583" y="-122"/>
      <point x="583" y="-98" type="curve" smooth="yes"/>
      <point x="583" y="-75"/>
      <point x="585" y="-27"/>
      <point x="590" y="20" type="curve"/>
      <point x="559" y="20" type="line" smooth="yes"/>
      <point x="491" y="20"/>
      <point x="478" y="33"/>
      <point x="478" y="106" type="curve" smooth="yes"/>
      <point x="478" y="502" type="line" smooth="yes"/>
      <point x="478" y="575"/>
      <point x="491" y="585"/>
      <point x="559" y="588" type="curve"/>
      <point x="559" y="608" type="line"/>
    </contour>
  </outline>
</glyph>
<glyph name="uni0438.smcp" format="1">
  <advance width="757"/>
  <outline>
    <contour>
      <point x="266" y="606"/>
      <point x="216" y="605"/>
      <point x="170" y="605" type="curve" smooth="yes"/>
      <point x="118" y="605"/>
      <point x="70" y="606"/>
      <point x="42" y="608" type="curve"/>
      <point x="42" y="588" type="line"/>
      <point x="110" y="585"/>
      <point x="123" y="575"/>
      <point x="123" y="502" type="curve" smooth="yes"/>
      <point x="123" y="106" type="line" smooth="yes"/>
      <point x="123" y="33"/>
      <point x="110" y="23"/>
      <point x="42" y="20" type="curve"/>
      <point x="42" y="0" type="line"/>
      <point x="70" y="2"/>
      <point x="118" y="3"/>
      <point x="170" y="3" type="curve" smooth="yes"/>
      <point x="216" y="3"/>
      <point x="266" y="2"/>
      <point x="297" y="0" type="curve"/>
      <point x="297" y="20" type="line"/>
      <point x="229" y="23"/>
      <point x="216" y="33"/>
      <point x="216" y="106" type="curve" smooth="yes"/>
      <point x="216" y="502" type="line" smooth="yes"/>
      <point x="216" y="575"/>
      <point x="229" y="585"/>
      <point x="297" y="588" type="curve"/>
      <point x="297" y="608" type="line"/>
    </contour>
    <contour>
      <point x="186" y="85" type="line"/>
      <point x="186" y="85"/>
      <point x="179" y="42"/>
      <point x="179" y="42" type="curve"/>
      <point x="576" y="521" type="line"/>
      <point x="576" y="521"/>
      <point x="583" y="565"/>
      <point x="583" y="565" type="curve"/>
    </contour>
    <contour>
      <point x="687" y="606"/>
      <point x="639" y="605"/>
      <point x="587" y="605" type="curve" smooth="yes"/>
      <point x="541" y="605"/>
      <point x="491" y="606"/>
      <point x="460" y="608" type="curve"/>
      <point x="460" y="588" type="line"/>
      <point x="528" y="585"/>
      <point x="541" y="575"/>
      <point x="541" y="502" type="curve" smooth="yes"/>
      <point x="541" y="106" type="line" smooth="yes"/>
      <point x="541" y="33"/>
      <point x="528" y="23"/>
      <point x="460" y="20" type="curve"/>
      <point x="460" y="0" type="line"/>
      <point x="491" y="2"/>
      <point x="541" y="3"/>
      <point x="587" y="3" type="curve" smooth="yes"/>
      <point x="639" y="3"/>
      <point x="687" y="2"/>
      <point x="715" y="0" type="curve"/>
      <point x="715" y="20" type="line"/>
      <point x="647" y="23"/>
      <point x="634" y="33"/>
      <point x="634" y="106" type="curve" smooth="yes"/>
      <point x="634" y="502" type="line" smooth="yes"/>
      <point x="634" y="575"/>
      <point x="647" y="585"/>
      <point x="715" y="588" type="curve"/>
      <point x="715" y="608" type="line"/>
    </contour>
    <contour>
      <point x="379" y="608" type="move" name="top"/>
    </contour>
  </outline>
</glyph>
<glyph name="uni0456.smcp" format="1">
  <advance width="339"/>
  <outline>
    <component base="i.smcp"/>
    <contour>
      <point x="170" y="514" type="move" name="top"/>
    </contour>
  </outline>
</glyph>
<glyph name="uni045F.smcp" format="1">
  <advance width="723"/>
  <outline>
    <contour>
      <point x="653" y="606"/>
      <point x="605" y="605"/>
      <point x="553" y="605" type="curve" smooth="yes"/>
      <point x="507" y="605"/>
      <point x="457" y="606"/>
      <point x="426" y="608" type="curve"/>
      <point x="426" y="588" type="line"/>
      <point x="494" y="585"/>
      <point x="507" y="575"/>
      <point x="507" y="502" type="curve" smooth="yes"/>
      <point x="507" y="106" type="line" smooth="yes"/>
      <point x="507" y="33"/>
      <point x="494" y="20"/>
      <point x="426" y="20" type="curve" smooth="yes"/>
      <point x="290" y="20" type="line" smooth="yes"/>
      <point x="229" y="20"/>
      <point x="216" y="33"/>
      <point x="216" y="106" type="curve" smooth="yes"/>
      <point x="216" y="502" type="line" smooth="yes"/>
      <point x="216" y="575"/>
      <point x="229" y="585"/>
      <point x="297" y="588" type="curve"/>
      <point x="297" y="608" type="line"/>
      <point x="266" y="606"/>
      <point x="216" y="605"/>
      <point x="170" y="605" type="curve" smooth="yes"/>
      <point x="118" y="605"/>
      <point x="70" y="606"/>
      <point x="42" y="608" type="curve"/>
      <point x="42" y="588" type="line"/>
      <point x="110" y="585"/>
      <point x="123" y="575"/>
      <point x="123" y="502" type="curve" smooth="yes"/>
      <point x="123" y="106" type="line" smooth="yes"/>
      <point x="123" y="33"/>
      <point x="110" y="23"/>
      <point x="42" y="20" type="curve"/>
      <point x="42" y="0" type="line"/>
      <point x="70" y="2"/>
      <point x="118" y="3"/>
      <point x="170" y="3" type="curve" smooth="yes"/>
      <point x="244" y="3"/>
      <point x="318" y="0"/>
      <point x="363" y="0" type="curve" smooth="yes"/>
      <point x="408" y="0"/>
      <point x="479" y="3"/>
      <point x="553" y="3" type="curve" smooth="yes"/>
      <point x="605" y="3"/>
      <point x="653" y="2"/>
      <point x="681" y="0" type="curve"/>
      <point x="681" y="20" type="line"/>
      <point x="613" y="23"/>
      <point x="600" y="33"/>
      <point x="600" y="106" type="curve" smooth="yes"/>
      <point x="600" y="502" type="line" smooth="yes"/>
      <point x="600" y="575"/>
      <point x="613" y="585"/>
      <point x="681" y="588" type="curve"/>
      <point x="681" y="608" type="line"/>
    </contour>
    <contour>
      <point x="238" y="3" type="line"/>
      <point x="328" y="3"/>
      <point x="341" y="-42"/>
      <point x="352" y="-160" type="curve"/>
      <point x="375" y="-160" type="line"/>
      <point x="386" y="-42"/>
      <point x="399" y="3"/>
      <point x="489" y="3" type="curve"/>
      <point x="363" y="18" type="line"/>
    </contour>
  </outline>
</glyph>
<glyph name="v.smcp" format="1">
  <advance width="616"/>
  <outline>
    <contour>
      <point x="602" y="606"/>
      <point x="575" y="605"/>
      <point x="552" y="605" type="curve" smooth="yes"/>
      <point x="516" y="605"/>
      <point x="461" y="606"/>
      <point x="441" y="608" type="curve"/>
      <point x="441" y="588" type="line"/>
      <point x="519" y="585"/>
      <point x="543" y="554"/>
      <point x="495" y="448" type="curve" smooth="yes"/>
      <point x="337" y="96" type="line"/>
      <point x="350" y="106" type="line"/>
      <point x="174" y="504" type="line" smooth="yes"/>
      <point x="144" y="571"/>
      <point x="164" y="585"/>
      <point x="232" y="588" type="curve"/>
      <point x="232" y="608" type="line"/>
      <point x="204" y="606"/>
      <point x="156" y="605"/>
      <point x="104" y="605" type="curve" smooth="yes"/>
      <point x="66" y="605"/>
      <point x="24" y="606"/>
      <point x="-3" y="608" type="curve"/>
      <point x="-3" y="588" type="line"/>
      <point x="18" y="587"/>
      <point x="44" y="574"/>
      <point x="66" y="524" type="curve" smooth="yes"/>
      <point x="300" y="-5" type="line"/>
      <point x="305" y="-5"/>
      <point x="311" y="-5"/>
      <point x="316" y="-5" type="curve"/>
      <point x="535" y="490" type="line" smooth="yes"/>
      <point x="563" y="553"/>
      <point x="580" y="578"/>
      <point x="619" y="588" type="curve"/>
      <point x="619" y="608" type="line"/>
    </contour>
    <contour>
      <point x="334" y="608" type="move" name="top"/>
    </contour>
    <contour>
      <point x="319" y="0" type="move" name="bottom"/>
    </contour>
  </outline>
</glyph>
<glyph name="y.smcp" format="1">
  <advance width="573"/>
  <outline>
    <contour>
      <point x="548" y="605"/>
      <point x="510" y="604"/>
      <point x="486" y="604" type="curve" smooth="yes"/>
      <point x="462" y="604"/>
      <point x="429" y="605"/>
      <point x="401" y="608" type="curve"/>
      <point x="401" y="587" type="line"/>
      <point x="470" y="582"/>
      <point x="491" y="553"/>
      <point x="448" y="476" type="curve" smooth="yes"/>
      <point x="317" y="245" type="line"/>
      <point x="329" y="250" type="line"/>
      <point x="173" y="510" type="line" smooth="yes"/>
      <point x="129" y="584"/>
      <point x="176" y="587"/>
      <point x="226" y="587" type="curve"/>
      <point x="226" y="608" type="line"/>
      <point x="173" y="605"/>
      <point x="130" y="604"/>
      <point x="86" y="604" type="curve" smooth="yes"/>
      <point x="52" y="604"/>
      <point x="30" y="606"/>
      <point x="-2" y="608" type="curve"/>
      <point x="-2" y="587" type="line"/>
      <point x="14" y="584"/>
      <point x="28" y="578"/>
      <point x="56" y="531" type="curve" smooth="yes"/>
      <point x="280" y="158" type="line"/>
      <point x="297" y="158" type="line"/>
      <point x="499" y="519" type="line" smooth="yes"/>
      <point x="524" y="564"/>
      <point x="540" y="581"/>
      <point x="563" y="587" type="curve"/>
      <point x="563" y="608" type="line"/>
    </contour>
    <contour>
      <point x="303" y="209" type="line"/>
      <point x="249" y="271" type="line"/>
      <point x="249" y="106" type="line" smooth="yes"/>
      <point x="249" y="33"/>
      <point x="236" y="23"/>
      <point x="168" y="20" type="curve"/>
      <point x="168" y="0" type="line"/>
      <point x="196" y="2"/>
      <point x="244" y="3"/>
      <point x="296" y="3" type="curve" smooth="yes"/>
      <point x="342" y="3"/>
      <point x="392" y="2"/>
      <point x="423" y="0" type="curve"/>
      <point x="423" y="20" type="line"/>
      <point x="355" y="23"/>
      <point x="342" y="33"/>
      <point x="342" y="106" type="curve" smooth="yes"/>
      <point x="342" y="264" type="line"/>
    </contour>
    <contour>
      <point x="291" y="608" type="move" name="top"/>
    </contour>
    <contour>
      <point x="297" y="0" type="move" name="bottom"/>
    </contour>
  </outline>
</glyph>
